<mxfile host="app.diagrams.net" modified="2023-02-16T14:40:54.035Z" agent="5.0 (Windows NT 10.0; Win64; x64) AppleWebKit/537.36 (KHTML, like Gecko) Chrome/100.0.4896.75 Safari/537.36" etag="Py-GWR0SM9jsKqy3flkL" version="20.8.20" type="github">
  <diagram id="i7gGXflLBzXJQ1Onad0F" name="第 1 页">
    <mxGraphModel dx="1436" dy="884" grid="1" gridSize="10" guides="1" tooltips="1" connect="1" arrows="1" fold="1" page="1" pageScale="1" pageWidth="827" pageHeight="1169" math="0" shadow="0">
      <root>
        <mxCell id="0" />
        <mxCell id="1" parent="0" />
        <mxCell id="96Z2TRk2g2hctk14bLeR-65" style="edgeStyle=orthogonalEdgeStyle;rounded=0;orthogonalLoop=1;jettySize=auto;html=1;exitX=0.5;exitY=0;exitDx=0;exitDy=0;entryX=0.5;entryY=1;entryDx=0;entryDy=0;" parent="1" source="6hGsSX0xc1QD5v10wT_n-3" target="96Z2TRk2g2hctk14bLeR-2" edge="1">
          <mxGeometry relative="1" as="geometry" />
        </mxCell>
        <mxCell id="6hGsSX0xc1QD5v10wT_n-3" value="" style="whiteSpace=wrap;html=1;aspect=fixed;fillColor=#dae8fc;strokeColor=#6c8ebf;" parent="1" vertex="1">
          <mxGeometry x="71" y="1040" width="50" height="50" as="geometry" />
        </mxCell>
        <mxCell id="6hGsSX0xc1QD5v10wT_n-2" value="" style="whiteSpace=wrap;html=1;aspect=fixed;fillColor=#d5e8d4;strokeColor=#82b366;" parent="1" vertex="1">
          <mxGeometry x="61" y="1050" width="50" height="50" as="geometry" />
        </mxCell>
        <mxCell id="6hGsSX0xc1QD5v10wT_n-1" value="" style="whiteSpace=wrap;html=1;aspect=fixed;fillColor=#f8cecc;strokeColor=#b85450;" parent="1" vertex="1">
          <mxGeometry x="51" y="1060" width="50" height="50" as="geometry" />
        </mxCell>
        <mxCell id="96Z2TRk2g2hctk14bLeR-6" style="edgeStyle=orthogonalEdgeStyle;rounded=0;orthogonalLoop=1;jettySize=auto;html=1;exitX=0.5;exitY=0;exitDx=0;exitDy=0;" parent="1" source="96Z2TRk2g2hctk14bLeR-2" target="96Z2TRk2g2hctk14bLeR-5" edge="1">
          <mxGeometry relative="1" as="geometry" />
        </mxCell>
        <mxCell id="96Z2TRk2g2hctk14bLeR-2" value="BConv" style="rounded=1;whiteSpace=wrap;html=1;fillColor=#dae8fc;strokeColor=#6c8ebf;" parent="1" vertex="1">
          <mxGeometry x="36" y="940" width="120" height="20" as="geometry" />
        </mxCell>
        <mxCell id="96Z2TRk2g2hctk14bLeR-8" value="" style="edgeStyle=orthogonalEdgeStyle;rounded=0;orthogonalLoop=1;jettySize=auto;html=1;" parent="1" source="96Z2TRk2g2hctk14bLeR-5" target="96Z2TRk2g2hctk14bLeR-7" edge="1">
          <mxGeometry relative="1" as="geometry" />
        </mxCell>
        <mxCell id="96Z2TRk2g2hctk14bLeR-5" value="BConv" style="rounded=1;whiteSpace=wrap;html=1;fillColor=#dae8fc;strokeColor=#6c8ebf;" parent="1" vertex="1">
          <mxGeometry x="36" y="900" width="120" height="20" as="geometry" />
        </mxCell>
        <mxCell id="96Z2TRk2g2hctk14bLeR-10" style="edgeStyle=orthogonalEdgeStyle;rounded=0;orthogonalLoop=1;jettySize=auto;html=1;exitX=0.5;exitY=0;exitDx=0;exitDy=0;" parent="1" source="96Z2TRk2g2hctk14bLeR-7" target="96Z2TRk2g2hctk14bLeR-9" edge="1">
          <mxGeometry relative="1" as="geometry" />
        </mxCell>
        <mxCell id="96Z2TRk2g2hctk14bLeR-7" value="BConv" style="rounded=1;whiteSpace=wrap;html=1;fillColor=#dae8fc;strokeColor=#6c8ebf;" parent="1" vertex="1">
          <mxGeometry x="36" y="860" width="120" height="20" as="geometry" />
        </mxCell>
        <mxCell id="96Z2TRk2g2hctk14bLeR-12" style="edgeStyle=orthogonalEdgeStyle;rounded=0;orthogonalLoop=1;jettySize=auto;html=1;exitX=0.5;exitY=0;exitDx=0;exitDy=0;" parent="1" source="96Z2TRk2g2hctk14bLeR-9" target="96Z2TRk2g2hctk14bLeR-11" edge="1">
          <mxGeometry relative="1" as="geometry" />
        </mxCell>
        <mxCell id="96Z2TRk2g2hctk14bLeR-9" value="BConv" style="rounded=1;whiteSpace=wrap;html=1;fillColor=#dae8fc;strokeColor=#6c8ebf;" parent="1" vertex="1">
          <mxGeometry x="36" y="820" width="120" height="20" as="geometry" />
        </mxCell>
        <mxCell id="96Z2TRk2g2hctk14bLeR-339" style="edgeStyle=orthogonalEdgeStyle;curved=1;rounded=0;orthogonalLoop=1;jettySize=auto;html=1;exitX=0.5;exitY=0;exitDx=0;exitDy=0;entryX=0.5;entryY=1;entryDx=0;entryDy=0;fontSize=12;" parent="1" source="96Z2TRk2g2hctk14bLeR-11" target="96Z2TRk2g2hctk14bLeR-17" edge="1">
          <mxGeometry relative="1" as="geometry" />
        </mxCell>
        <mxCell id="96Z2TRk2g2hctk14bLeR-11" value="E-ELAN" style="rounded=1;whiteSpace=wrap;html=1;fillColor=#d5e8d4;strokeColor=#82b366;" parent="1" vertex="1">
          <mxGeometry x="36" y="780" width="120" height="20" as="geometry" />
        </mxCell>
        <mxCell id="96Z2TRk2g2hctk14bLeR-20" value="" style="edgeStyle=orthogonalEdgeStyle;rounded=0;orthogonalLoop=1;jettySize=auto;html=1;" parent="1" source="96Z2TRk2g2hctk14bLeR-17" target="96Z2TRk2g2hctk14bLeR-19" edge="1">
          <mxGeometry relative="1" as="geometry" />
        </mxCell>
        <mxCell id="96Z2TRk2g2hctk14bLeR-17" value="MPConv" style="rounded=1;whiteSpace=wrap;html=1;fillColor=#fad9d5;strokeColor=#ae4132;" parent="1" vertex="1">
          <mxGeometry x="36" y="630" width="120" height="20" as="geometry" />
        </mxCell>
        <mxCell id="96Z2TRk2g2hctk14bLeR-45" style="edgeStyle=orthogonalEdgeStyle;rounded=0;orthogonalLoop=1;jettySize=auto;html=1;exitX=0.5;exitY=0;exitDx=0;exitDy=0;entryX=0;entryY=0.5;entryDx=0;entryDy=0;" parent="1" source="96Z2TRk2g2hctk14bLeR-19" target="96Z2TRk2g2hctk14bLeR-43" edge="1">
          <mxGeometry relative="1" as="geometry" />
        </mxCell>
        <mxCell id="96Z2TRk2g2hctk14bLeR-284" value="" style="edgeStyle=orthogonalEdgeStyle;rounded=0;orthogonalLoop=1;jettySize=auto;html=1;fontSize=30;" parent="1" source="96Z2TRk2g2hctk14bLeR-19" target="96Z2TRk2g2hctk14bLeR-281" edge="1">
          <mxGeometry relative="1" as="geometry" />
        </mxCell>
        <mxCell id="96Z2TRk2g2hctk14bLeR-19" value="E-ELAN" style="rounded=1;whiteSpace=wrap;html=1;fillColor=#d5e8d4;strokeColor=#82b366;" parent="1" vertex="1">
          <mxGeometry x="36" y="585" width="120" height="20" as="geometry" />
        </mxCell>
        <mxCell id="96Z2TRk2g2hctk14bLeR-36" style="edgeStyle=orthogonalEdgeStyle;rounded=0;orthogonalLoop=1;jettySize=auto;html=1;exitX=0.5;exitY=0;exitDx=0;exitDy=0;entryX=0;entryY=0.5;entryDx=0;entryDy=0;" parent="1" source="96Z2TRk2g2hctk14bLeR-21" target="96Z2TRk2g2hctk14bLeR-40" edge="1">
          <mxGeometry relative="1" as="geometry">
            <mxPoint x="221" y="410" as="targetPoint" />
          </mxGeometry>
        </mxCell>
        <mxCell id="96Z2TRk2g2hctk14bLeR-41" style="edgeStyle=orthogonalEdgeStyle;rounded=0;orthogonalLoop=1;jettySize=auto;html=1;exitX=0.5;exitY=0;exitDx=0;exitDy=0;entryX=0.5;entryY=1;entryDx=0;entryDy=0;" parent="1" source="96Z2TRk2g2hctk14bLeR-21" target="96Z2TRk2g2hctk14bLeR-23" edge="1">
          <mxGeometry relative="1" as="geometry" />
        </mxCell>
        <mxCell id="96Z2TRk2g2hctk14bLeR-21" value="E-ELAN" style="rounded=1;whiteSpace=wrap;html=1;fillColor=#d5e8d4;strokeColor=#82b366;" parent="1" vertex="1">
          <mxGeometry x="36" y="380" width="120" height="20" as="geometry" />
        </mxCell>
        <mxCell id="96Z2TRk2g2hctk14bLeR-26" style="edgeStyle=orthogonalEdgeStyle;rounded=0;orthogonalLoop=1;jettySize=auto;html=1;exitX=0.5;exitY=0;exitDx=0;exitDy=0;" parent="1" source="96Z2TRk2g2hctk14bLeR-23" target="96Z2TRk2g2hctk14bLeR-25" edge="1">
          <mxGeometry relative="1" as="geometry" />
        </mxCell>
        <mxCell id="96Z2TRk2g2hctk14bLeR-23" value="MPConv" style="rounded=1;whiteSpace=wrap;html=1;fillColor=#fad9d5;strokeColor=#ae4132;" parent="1" vertex="1">
          <mxGeometry x="36" y="290" width="120" height="20" as="geometry" />
        </mxCell>
        <mxCell id="96Z2TRk2g2hctk14bLeR-29" style="edgeStyle=orthogonalEdgeStyle;rounded=0;orthogonalLoop=1;jettySize=auto;html=1;exitX=0.5;exitY=0;exitDx=0;exitDy=0;entryX=0.5;entryY=0;entryDx=0;entryDy=0;" parent="1" source="96Z2TRk2g2hctk14bLeR-25" target="96Z2TRk2g2hctk14bLeR-28" edge="1">
          <mxGeometry relative="1" as="geometry">
            <mxPoint x="311" y="260" as="targetPoint" />
          </mxGeometry>
        </mxCell>
        <mxCell id="96Z2TRk2g2hctk14bLeR-25" value="E-ELAN" style="rounded=1;whiteSpace=wrap;html=1;fillColor=#d5e8d4;strokeColor=#82b366;" parent="1" vertex="1">
          <mxGeometry x="36" y="230" width="120" height="20" as="geometry" />
        </mxCell>
        <mxCell id="96Z2TRk2g2hctk14bLeR-31" style="edgeStyle=orthogonalEdgeStyle;rounded=0;orthogonalLoop=1;jettySize=auto;html=1;exitX=0.5;exitY=1;exitDx=0;exitDy=0;" parent="1" source="96Z2TRk2g2hctk14bLeR-28" target="96Z2TRk2g2hctk14bLeR-30" edge="1">
          <mxGeometry relative="1" as="geometry" />
        </mxCell>
        <mxCell id="96Z2TRk2g2hctk14bLeR-73" style="edgeStyle=orthogonalEdgeStyle;rounded=0;orthogonalLoop=1;jettySize=auto;html=1;exitX=0.5;exitY=0;exitDx=0;exitDy=0;entryX=0;entryY=0.5;entryDx=0;entryDy=0;startArrow=none;" parent="1" source="96Z2TRk2g2hctk14bLeR-30" target="96Z2TRk2g2hctk14bLeR-71" edge="1">
          <mxGeometry relative="1" as="geometry">
            <Array as="points">
              <mxPoint x="311" y="230" />
              <mxPoint x="450" y="230" />
              <mxPoint x="450" y="245" />
            </Array>
          </mxGeometry>
        </mxCell>
        <mxCell id="96Z2TRk2g2hctk14bLeR-28" value="SPPCSPC-XS" style="rounded=1;whiteSpace=wrap;html=1;" parent="1" vertex="1">
          <mxGeometry x="251" y="200" width="120" height="20" as="geometry" />
        </mxCell>
        <mxCell id="a6rZ2WNsQKCH5PQ9cZ_o-14" style="edgeStyle=orthogonalEdgeStyle;rounded=0;orthogonalLoop=1;jettySize=auto;html=1;exitX=0.5;exitY=1;exitDx=0;exitDy=0;entryX=0.5;entryY=0;entryDx=0;entryDy=0;fontFamily=Tahoma;fontSize=6;" parent="1" source="96Z2TRk2g2hctk14bLeR-30" target="a6rZ2WNsQKCH5PQ9cZ_o-13" edge="1">
          <mxGeometry relative="1" as="geometry" />
        </mxCell>
        <mxCell id="96Z2TRk2g2hctk14bLeR-30" value="BConv" style="rounded=1;whiteSpace=wrap;html=1;fillColor=#dae8fc;strokeColor=#6c8ebf;" parent="1" vertex="1">
          <mxGeometry x="251" y="235" width="120" height="20" as="geometry" />
        </mxCell>
        <mxCell id="96Z2TRk2g2hctk14bLeR-38" value="" style="edgeStyle=orthogonalEdgeStyle;rounded=0;orthogonalLoop=1;jettySize=auto;html=1;" parent="1" source="96Z2TRk2g2hctk14bLeR-32" target="96Z2TRk2g2hctk14bLeR-37" edge="1">
          <mxGeometry relative="1" as="geometry" />
        </mxCell>
        <mxCell id="96Z2TRk2g2hctk14bLeR-32" value="UPSample" style="rounded=1;whiteSpace=wrap;html=1;fillColor=#99CCFF;" parent="1" vertex="1">
          <mxGeometry x="250" y="300" width="120" height="20" as="geometry" />
        </mxCell>
        <mxCell id="96Z2TRk2g2hctk14bLeR-50" value="" style="edgeStyle=orthogonalEdgeStyle;rounded=0;orthogonalLoop=1;jettySize=auto;html=1;" parent="1" source="96Z2TRk2g2hctk14bLeR-37" target="96Z2TRk2g2hctk14bLeR-49" edge="1">
          <mxGeometry relative="1" as="geometry" />
        </mxCell>
        <mxCell id="96Z2TRk2g2hctk14bLeR-37" value="cat" style="ellipse;whiteSpace=wrap;html=1;rounded=1;fillColor=#fff2cc;strokeColor=#d6b656;" parent="1" vertex="1">
          <mxGeometry x="296" y="335" width="30" height="30" as="geometry" />
        </mxCell>
        <mxCell id="a6rZ2WNsQKCH5PQ9cZ_o-5" style="edgeStyle=orthogonalEdgeStyle;rounded=0;orthogonalLoop=1;jettySize=auto;html=1;exitX=1;exitY=0.5;exitDx=0;exitDy=0;entryX=0;entryY=0.5;entryDx=0;entryDy=0;fontFamily=Tahoma;fontSize=6;" parent="1" source="96Z2TRk2g2hctk14bLeR-40" target="a6rZ2WNsQKCH5PQ9cZ_o-4" edge="1">
          <mxGeometry relative="1" as="geometry" />
        </mxCell>
        <mxCell id="96Z2TRk2g2hctk14bLeR-40" value="BConv" style="rounded=1;whiteSpace=wrap;html=1;fillColor=#dae8fc;strokeColor=#6c8ebf;" parent="1" vertex="1">
          <mxGeometry x="140" y="340" width="60" height="20" as="geometry" />
        </mxCell>
        <mxCell id="a6rZ2WNsQKCH5PQ9cZ_o-2" style="edgeStyle=orthogonalEdgeStyle;rounded=0;orthogonalLoop=1;jettySize=auto;html=1;exitX=1;exitY=0.5;exitDx=0;exitDy=0;entryX=0;entryY=0.5;entryDx=0;entryDy=0;fontFamily=Tahoma;fontSize=6;" parent="1" source="96Z2TRk2g2hctk14bLeR-43" target="a6rZ2WNsQKCH5PQ9cZ_o-1" edge="1">
          <mxGeometry relative="1" as="geometry" />
        </mxCell>
        <mxCell id="96Z2TRk2g2hctk14bLeR-43" value="BConv" style="rounded=1;whiteSpace=wrap;html=1;fillColor=#dae8fc;strokeColor=#6c8ebf;" parent="1" vertex="1">
          <mxGeometry x="140" y="555" width="60" height="20" as="geometry" />
        </mxCell>
        <mxCell id="96Z2TRk2g2hctk14bLeR-67" value="" style="edgeStyle=orthogonalEdgeStyle;rounded=0;orthogonalLoop=1;jettySize=auto;html=1;" parent="1" source="96Z2TRk2g2hctk14bLeR-48" target="96Z2TRk2g2hctk14bLeR-66" edge="1">
          <mxGeometry relative="1" as="geometry" />
        </mxCell>
        <mxCell id="96Z2TRk2g2hctk14bLeR-48" value="cat" style="ellipse;whiteSpace=wrap;html=1;rounded=1;fillColor=#fff2cc;strokeColor=#d6b656;" parent="1" vertex="1">
          <mxGeometry x="296" y="550" width="30" height="30" as="geometry" />
        </mxCell>
        <mxCell id="96Z2TRk2g2hctk14bLeR-53" value="" style="edgeStyle=orthogonalEdgeStyle;rounded=0;orthogonalLoop=1;jettySize=auto;html=1;entryX=0.5;entryY=0;entryDx=0;entryDy=0;" parent="1" source="96Z2TRk2g2hctk14bLeR-49" target="96Z2TRk2g2hctk14bLeR-55" edge="1">
          <mxGeometry relative="1" as="geometry">
            <mxPoint x="311" y="430" as="targetPoint" />
          </mxGeometry>
        </mxCell>
        <mxCell id="96Z2TRk2g2hctk14bLeR-49" value="Catconv" style="rounded=1;whiteSpace=wrap;html=1;fillColor=#cdeb8b;strokeColor=#36393d;" parent="1" vertex="1">
          <mxGeometry x="251" y="390" width="120" height="20" as="geometry" />
        </mxCell>
        <mxCell id="96Z2TRk2g2hctk14bLeR-91" value="" style="edgeStyle=orthogonalEdgeStyle;rounded=0;orthogonalLoop=1;jettySize=auto;html=1;" parent="1" source="96Z2TRk2g2hctk14bLeR-54" target="96Z2TRk2g2hctk14bLeR-89" edge="1">
          <mxGeometry relative="1" as="geometry" />
        </mxCell>
        <mxCell id="a6rZ2WNsQKCH5PQ9cZ_o-11" style="edgeStyle=orthogonalEdgeStyle;rounded=0;orthogonalLoop=1;jettySize=auto;html=1;exitX=0.5;exitY=1;exitDx=0;exitDy=0;entryX=0.5;entryY=0;entryDx=0;entryDy=0;fontFamily=Tahoma;fontSize=6;" parent="1" source="96Z2TRk2g2hctk14bLeR-54" target="a6rZ2WNsQKCH5PQ9cZ_o-10" edge="1">
          <mxGeometry relative="1" as="geometry" />
        </mxCell>
        <mxCell id="96Z2TRk2g2hctk14bLeR-54" value="BConv" style="rounded=1;whiteSpace=wrap;html=1;fillColor=#dae8fc;strokeColor=#6c8ebf;" parent="1" vertex="1">
          <mxGeometry x="250" y="455" width="120" height="20" as="geometry" />
        </mxCell>
        <mxCell id="96Z2TRk2g2hctk14bLeR-56" style="edgeStyle=orthogonalEdgeStyle;rounded=0;orthogonalLoop=1;jettySize=auto;html=1;exitX=0.5;exitY=1;exitDx=0;exitDy=0;entryX=0.5;entryY=0;entryDx=0;entryDy=0;" parent="1" source="96Z2TRk2g2hctk14bLeR-55" target="96Z2TRk2g2hctk14bLeR-54" edge="1">
          <mxGeometry relative="1" as="geometry" />
        </mxCell>
        <mxCell id="96Z2TRk2g2hctk14bLeR-55" value="BConv" style="rounded=1;whiteSpace=wrap;html=1;fillColor=#dae8fc;strokeColor=#6c8ebf;" parent="1" vertex="1">
          <mxGeometry x="251" y="420" width="120" height="20" as="geometry" />
        </mxCell>
        <mxCell id="a6rZ2WNsQKCH5PQ9cZ_o-20" style="edgeStyle=orthogonalEdgeStyle;rounded=0;orthogonalLoop=1;jettySize=auto;html=1;exitX=0.5;exitY=1;exitDx=0;exitDy=0;entryX=0.5;entryY=0;entryDx=0;entryDy=0;fontFamily=Tahoma;fontSize=6;" parent="1" source="96Z2TRk2g2hctk14bLeR-60" target="96Z2TRk2g2hctk14bLeR-48" edge="1">
          <mxGeometry relative="1" as="geometry" />
        </mxCell>
        <mxCell id="96Z2TRk2g2hctk14bLeR-60" value="UPsample" style="rounded=1;whiteSpace=wrap;html=1;fillColor=#99CCFF;" parent="1" vertex="1">
          <mxGeometry x="251" y="520" width="120" height="20" as="geometry" />
        </mxCell>
        <mxCell id="96Z2TRk2g2hctk14bLeR-69" value="" style="edgeStyle=orthogonalEdgeStyle;rounded=0;orthogonalLoop=1;jettySize=auto;html=1;" parent="1" source="96Z2TRk2g2hctk14bLeR-66" target="96Z2TRk2g2hctk14bLeR-68" edge="1">
          <mxGeometry relative="1" as="geometry" />
        </mxCell>
        <mxCell id="96Z2TRk2g2hctk14bLeR-66" value="Catconv" style="whiteSpace=wrap;html=1;rounded=1;fillColor=#cdeb8b;strokeColor=#36393d;" parent="1" vertex="1">
          <mxGeometry x="251" y="610" width="120" height="25" as="geometry" />
        </mxCell>
        <mxCell id="96Z2TRk2g2hctk14bLeR-93" style="edgeStyle=orthogonalEdgeStyle;rounded=0;orthogonalLoop=1;jettySize=auto;html=1;exitX=1;exitY=0.5;exitDx=0;exitDy=0;entryX=0.5;entryY=1;entryDx=0;entryDy=0;" parent="1" source="96Z2TRk2g2hctk14bLeR-68" target="96Z2TRk2g2hctk14bLeR-83" edge="1">
          <mxGeometry relative="1" as="geometry" />
        </mxCell>
        <mxCell id="96Z2TRk2g2hctk14bLeR-102" value="" style="edgeStyle=orthogonalEdgeStyle;rounded=0;orthogonalLoop=1;jettySize=auto;html=1;" parent="1" source="96Z2TRk2g2hctk14bLeR-68" target="96Z2TRk2g2hctk14bLeR-83" edge="1">
          <mxGeometry relative="1" as="geometry" />
        </mxCell>
        <mxCell id="96Z2TRk2g2hctk14bLeR-105" style="edgeStyle=orthogonalEdgeStyle;rounded=0;orthogonalLoop=1;jettySize=auto;html=1;exitX=1;exitY=0.5;exitDx=0;exitDy=0;entryX=0;entryY=0.5;entryDx=0;entryDy=0;" parent="1" source="96Z2TRk2g2hctk14bLeR-68" target="96Z2TRk2g2hctk14bLeR-101" edge="1">
          <mxGeometry relative="1" as="geometry" />
        </mxCell>
        <mxCell id="96Z2TRk2g2hctk14bLeR-68" value="BConv" style="whiteSpace=wrap;html=1;rounded=1;fillColor=#dae8fc;strokeColor=#6c8ebf;" parent="1" vertex="1">
          <mxGeometry x="251" y="660" width="120" height="25" as="geometry" />
        </mxCell>
        <mxCell id="96Z2TRk2g2hctk14bLeR-96" style="edgeStyle=orthogonalEdgeStyle;rounded=0;orthogonalLoop=1;jettySize=auto;html=1;exitX=0.5;exitY=0;exitDx=0;exitDy=0;entryX=0.5;entryY=1;entryDx=0;entryDy=0;" parent="1" source="96Z2TRk2g2hctk14bLeR-71" target="96Z2TRk2g2hctk14bLeR-94" edge="1">
          <mxGeometry relative="1" as="geometry" />
        </mxCell>
        <mxCell id="96Z2TRk2g2hctk14bLeR-71" value="cat" style="ellipse;whiteSpace=wrap;html=1;rounded=1;fillColor=#fff2cc;strokeColor=#d6b656;" parent="1" vertex="1">
          <mxGeometry x="471" y="230" width="30" height="30" as="geometry" />
        </mxCell>
        <mxCell id="96Z2TRk2g2hctk14bLeR-78" value="" style="edgeStyle=orthogonalEdgeStyle;rounded=0;orthogonalLoop=1;jettySize=auto;html=1;" parent="1" source="96Z2TRk2g2hctk14bLeR-76" target="96Z2TRk2g2hctk14bLeR-71" edge="1">
          <mxGeometry relative="1" as="geometry" />
        </mxCell>
        <mxCell id="96Z2TRk2g2hctk14bLeR-76" value="MPConv" style="whiteSpace=wrap;html=1;rounded=1;fillColor=#fad9d5;strokeColor=#ae4132;" parent="1" vertex="1">
          <mxGeometry x="426" y="300" width="120" height="25" as="geometry" />
        </mxCell>
        <mxCell id="96Z2TRk2g2hctk14bLeR-84" value="" style="edgeStyle=orthogonalEdgeStyle;rounded=0;orthogonalLoop=1;jettySize=auto;html=1;" parent="1" source="96Z2TRk2g2hctk14bLeR-81" target="96Z2TRk2g2hctk14bLeR-76" edge="1">
          <mxGeometry relative="1" as="geometry" />
        </mxCell>
        <mxCell id="96Z2TRk2g2hctk14bLeR-106" style="edgeStyle=orthogonalEdgeStyle;rounded=0;orthogonalLoop=1;jettySize=auto;html=1;exitX=0.5;exitY=0;exitDx=0;exitDy=0;entryX=0;entryY=0.5;entryDx=0;entryDy=0;" parent="1" source="96Z2TRk2g2hctk14bLeR-81" target="96Z2TRk2g2hctk14bLeR-100" edge="1">
          <mxGeometry relative="1" as="geometry" />
        </mxCell>
        <mxCell id="96Z2TRk2g2hctk14bLeR-81" value="MPConv" style="whiteSpace=wrap;html=1;rounded=1;fillColor=#fad9d5;strokeColor=#ae4132;" parent="1" vertex="1">
          <mxGeometry x="426" y="360" width="120" height="25" as="geometry" />
        </mxCell>
        <mxCell id="96Z2TRk2g2hctk14bLeR-88" value="" style="edgeStyle=orthogonalEdgeStyle;rounded=0;orthogonalLoop=1;jettySize=auto;html=1;" parent="1" source="96Z2TRk2g2hctk14bLeR-82" target="96Z2TRk2g2hctk14bLeR-81" edge="1">
          <mxGeometry relative="1" as="geometry" />
        </mxCell>
        <mxCell id="96Z2TRk2g2hctk14bLeR-82" value="Catconv" style="whiteSpace=wrap;html=1;rounded=1;fillColor=#cdeb8b;strokeColor=#36393d;" parent="1" vertex="1">
          <mxGeometry x="426" y="410" width="120" height="25" as="geometry" />
        </mxCell>
        <mxCell id="96Z2TRk2g2hctk14bLeR-92" style="edgeStyle=orthogonalEdgeStyle;rounded=0;orthogonalLoop=1;jettySize=auto;html=1;exitX=0.5;exitY=0;exitDx=0;exitDy=0;entryX=0.5;entryY=1;entryDx=0;entryDy=0;" parent="1" source="96Z2TRk2g2hctk14bLeR-83" target="96Z2TRk2g2hctk14bLeR-89" edge="1">
          <mxGeometry relative="1" as="geometry" />
        </mxCell>
        <mxCell id="96Z2TRk2g2hctk14bLeR-83" value="MPConv" style="whiteSpace=wrap;html=1;rounded=1;fillColor=#fad9d5;strokeColor=#ae4132;" parent="1" vertex="1">
          <mxGeometry x="426" y="620" width="120" height="25" as="geometry" />
        </mxCell>
        <mxCell id="96Z2TRk2g2hctk14bLeR-90" value="" style="edgeStyle=orthogonalEdgeStyle;rounded=0;orthogonalLoop=1;jettySize=auto;html=1;" parent="1" source="96Z2TRk2g2hctk14bLeR-89" target="96Z2TRk2g2hctk14bLeR-82" edge="1">
          <mxGeometry relative="1" as="geometry" />
        </mxCell>
        <mxCell id="96Z2TRk2g2hctk14bLeR-89" value="cat" style="ellipse;whiteSpace=wrap;html=1;rounded=1;fillColor=#fff2cc;strokeColor=#d6b656;" parent="1" vertex="1">
          <mxGeometry x="471" y="450" width="30" height="30" as="geometry" />
        </mxCell>
        <mxCell id="96Z2TRk2g2hctk14bLeR-97" style="edgeStyle=orthogonalEdgeStyle;rounded=0;orthogonalLoop=1;jettySize=auto;html=1;exitX=0.5;exitY=0;exitDx=0;exitDy=0;entryX=0.5;entryY=1;entryDx=0;entryDy=0;" parent="1" source="96Z2TRk2g2hctk14bLeR-94" target="96Z2TRk2g2hctk14bLeR-95" edge="1">
          <mxGeometry relative="1" as="geometry">
            <mxPoint x="486" y="175" as="sourcePoint" />
          </mxGeometry>
        </mxCell>
        <mxCell id="96Z2TRk2g2hctk14bLeR-94" value="Catconv" style="rounded=1;whiteSpace=wrap;html=1;fillColor=#cdeb8b;strokeColor=#36393d;" parent="1" vertex="1">
          <mxGeometry x="426" y="195" width="120" height="25" as="geometry" />
        </mxCell>
        <mxCell id="96Z2TRk2g2hctk14bLeR-99" style="edgeStyle=orthogonalEdgeStyle;rounded=0;orthogonalLoop=1;jettySize=auto;html=1;exitX=1;exitY=0.5;exitDx=0;exitDy=0;entryX=0;entryY=0.5;entryDx=0;entryDy=0;" parent="1" source="96Z2TRk2g2hctk14bLeR-95" target="96Z2TRk2g2hctk14bLeR-98" edge="1">
          <mxGeometry relative="1" as="geometry" />
        </mxCell>
        <mxCell id="96Z2TRk2g2hctk14bLeR-95" value="BConv" style="rounded=1;whiteSpace=wrap;html=1;fillColor=#dae8fc;strokeColor=#6c8ebf;" parent="1" vertex="1">
          <mxGeometry x="427" y="135" width="120" height="30" as="geometry" />
        </mxCell>
        <mxCell id="96Z2TRk2g2hctk14bLeR-108" value="" style="edgeStyle=orthogonalEdgeStyle;rounded=0;orthogonalLoop=1;jettySize=auto;html=1;" parent="1" source="96Z2TRk2g2hctk14bLeR-98" target="96Z2TRk2g2hctk14bLeR-107" edge="1">
          <mxGeometry relative="1" as="geometry" />
        </mxCell>
        <mxCell id="96Z2TRk2g2hctk14bLeR-98" value="REP" style="rounded=1;whiteSpace=wrap;html=1;fillColor=#fad7ac;strokeColor=#b46504;" parent="1" vertex="1">
          <mxGeometry x="611" y="140" width="40" height="20" as="geometry" />
        </mxCell>
        <mxCell id="96Z2TRk2g2hctk14bLeR-110" value="" style="edgeStyle=orthogonalEdgeStyle;rounded=0;orthogonalLoop=1;jettySize=auto;html=1;" parent="1" source="96Z2TRk2g2hctk14bLeR-100" target="96Z2TRk2g2hctk14bLeR-109" edge="1">
          <mxGeometry relative="1" as="geometry" />
        </mxCell>
        <mxCell id="96Z2TRk2g2hctk14bLeR-100" value="REP" style="rounded=1;whiteSpace=wrap;html=1;fillColor=#fad7ac;strokeColor=#b46504;" parent="1" vertex="1">
          <mxGeometry x="611" y="330" width="40" height="20" as="geometry" />
        </mxCell>
        <mxCell id="96Z2TRk2g2hctk14bLeR-113" value="" style="edgeStyle=orthogonalEdgeStyle;rounded=0;orthogonalLoop=1;jettySize=auto;html=1;" parent="1" source="96Z2TRk2g2hctk14bLeR-101" target="96Z2TRk2g2hctk14bLeR-111" edge="1">
          <mxGeometry relative="1" as="geometry" />
        </mxCell>
        <mxCell id="96Z2TRk2g2hctk14bLeR-101" value="REP" style="rounded=1;whiteSpace=wrap;html=1;fillColor=#fad7ac;strokeColor=#b46504;" parent="1" vertex="1">
          <mxGeometry x="611" y="662.5" width="40" height="20" as="geometry" />
        </mxCell>
        <mxCell id="96Z2TRk2g2hctk14bLeR-141" value="" style="edgeStyle=orthogonalEdgeStyle;rounded=0;orthogonalLoop=1;jettySize=auto;html=1;" parent="1" source="96Z2TRk2g2hctk14bLeR-107" target="96Z2TRk2g2hctk14bLeR-117" edge="1">
          <mxGeometry relative="1" as="geometry" />
        </mxCell>
        <mxCell id="96Z2TRk2g2hctk14bLeR-107" value="Conv" style="rounded=1;whiteSpace=wrap;html=1;fillColor=#eeeeee;strokeColor=#36393d;" parent="1" vertex="1">
          <mxGeometry x="681" y="140" width="40" height="20" as="geometry" />
        </mxCell>
        <mxCell id="96Z2TRk2g2hctk14bLeR-119" value="" style="edgeStyle=orthogonalEdgeStyle;rounded=0;orthogonalLoop=1;jettySize=auto;html=1;" parent="1" source="96Z2TRk2g2hctk14bLeR-109" target="96Z2TRk2g2hctk14bLeR-118" edge="1">
          <mxGeometry relative="1" as="geometry" />
        </mxCell>
        <mxCell id="96Z2TRk2g2hctk14bLeR-109" value="Conv" style="rounded=1;whiteSpace=wrap;html=1;fillColor=#eeeeee;strokeColor=#36393d;" parent="1" vertex="1">
          <mxGeometry x="681" y="330" width="40" height="20" as="geometry" />
        </mxCell>
        <mxCell id="96Z2TRk2g2hctk14bLeR-121" value="" style="edgeStyle=orthogonalEdgeStyle;rounded=0;orthogonalLoop=1;jettySize=auto;html=1;" parent="1" source="96Z2TRk2g2hctk14bLeR-111" target="96Z2TRk2g2hctk14bLeR-120" edge="1">
          <mxGeometry relative="1" as="geometry" />
        </mxCell>
        <mxCell id="96Z2TRk2g2hctk14bLeR-111" value="Conv" style="rounded=1;whiteSpace=wrap;html=1;fillColor=#eeeeee;strokeColor=#36393d;" parent="1" vertex="1">
          <mxGeometry x="681" y="662.5" width="40" height="20" as="geometry" />
        </mxCell>
        <mxCell id="96Z2TRk2g2hctk14bLeR-117" value="" style="shape=cube;whiteSpace=wrap;html=1;boundedLbl=1;backgroundOutline=1;darkOpacity=0.05;darkOpacity2=0.1;size=10;fontStyle=1;fillColor=#f8cecc;strokeColor=#b85450;" parent="1" vertex="1">
          <mxGeometry x="751" y="130" width="40" height="40" as="geometry" />
        </mxCell>
        <mxCell id="96Z2TRk2g2hctk14bLeR-118" value="" style="shape=cube;whiteSpace=wrap;html=1;boundedLbl=1;backgroundOutline=1;darkOpacity=0.05;darkOpacity2=0.1;size=10;fillColor=#d5e8d4;strokeColor=#82b366;" parent="1" vertex="1">
          <mxGeometry x="751" y="320" width="40" height="40" as="geometry" />
        </mxCell>
        <mxCell id="96Z2TRk2g2hctk14bLeR-120" value="" style="shape=cube;whiteSpace=wrap;html=1;boundedLbl=1;backgroundOutline=1;darkOpacity=0.05;darkOpacity2=0.1;size=10;fillColor=#dae8fc;strokeColor=#6c8ebf;" parent="1" vertex="1">
          <mxGeometry x="751" y="652.5" width="40" height="40" as="geometry" />
        </mxCell>
        <mxCell id="96Z2TRk2g2hctk14bLeR-129" value="" style="endArrow=none;dashed=1;html=1;dashPattern=1 3;strokeWidth=2;rounded=0;" parent="1" edge="1">
          <mxGeometry width="50" height="50" relative="1" as="geometry">
            <mxPoint x="190" y="1160" as="sourcePoint" />
            <mxPoint x="190" y="710" as="targetPoint" />
            <Array as="points" />
          </mxGeometry>
        </mxCell>
        <mxCell id="96Z2TRk2g2hctk14bLeR-130" value="" style="endArrow=none;dashed=1;html=1;dashPattern=1 3;strokeWidth=2;rounded=0;" parent="1" edge="1">
          <mxGeometry width="50" height="50" relative="1" as="geometry">
            <mxPoint x="190" y="710" as="sourcePoint" />
            <mxPoint x="820" y="710" as="targetPoint" />
          </mxGeometry>
        </mxCell>
        <mxCell id="96Z2TRk2g2hctk14bLeR-131" value="BConv" style="rounded=1;whiteSpace=wrap;html=1;fillColor=#dae8fc;strokeColor=#6c8ebf;" parent="1" vertex="1">
          <mxGeometry x="201" y="755" width="40" height="20" as="geometry" />
        </mxCell>
        <mxCell id="96Z2TRk2g2hctk14bLeR-132" value="BConv" style="rounded=1;whiteSpace=wrap;html=1;fillColor=#dae8fc;strokeColor=#6c8ebf;" parent="1" vertex="1">
          <mxGeometry x="241" y="755" width="40" height="20" as="geometry" />
        </mxCell>
        <mxCell id="96Z2TRk2g2hctk14bLeR-133" value="BConv" style="rounded=1;whiteSpace=wrap;html=1;fillColor=#dae8fc;strokeColor=#6c8ebf;" parent="1" vertex="1">
          <mxGeometry x="281" y="755" width="40" height="20" as="geometry" />
        </mxCell>
        <mxCell id="96Z2TRk2g2hctk14bLeR-136" value="BConv" style="rounded=1;whiteSpace=wrap;html=1;fillColor=#dae8fc;strokeColor=#6c8ebf;" parent="1" vertex="1">
          <mxGeometry x="357" y="755" width="40" height="20" as="geometry" />
        </mxCell>
        <mxCell id="96Z2TRk2g2hctk14bLeR-137" value="BN" style="rounded=1;whiteSpace=wrap;html=1;fillColor=#ffe6cc;strokeColor=#d79b00;" parent="1" vertex="1">
          <mxGeometry x="397" y="755" width="40" height="20" as="geometry" />
        </mxCell>
        <mxCell id="96Z2TRk2g2hctk14bLeR-138" value="LeakyReLu" style="rounded=1;whiteSpace=wrap;html=1;fillColor=#b0e3e6;strokeColor=#0e8088;" parent="1" vertex="1">
          <mxGeometry x="437" y="755" width="70" height="20" as="geometry" />
        </mxCell>
        <mxCell id="96Z2TRk2g2hctk14bLeR-142" value="E-ELAN" style="rounded=1;whiteSpace=wrap;html=1;fillColor=#d5e8d4;strokeColor=#82b366;" parent="1" vertex="1">
          <mxGeometry x="200" y="855.03" width="50" height="20" as="geometry" />
        </mxCell>
        <mxCell id="96Z2TRk2g2hctk14bLeR-143" value="BConv" style="rounded=1;whiteSpace=wrap;html=1;fillColor=#dae8fc;strokeColor=#6c8ebf;" parent="1" vertex="1">
          <mxGeometry x="296" y="855.03" width="40" height="20" as="geometry" />
        </mxCell>
        <mxCell id="96Z2TRk2g2hctk14bLeR-145" value="BConv" style="rounded=1;whiteSpace=wrap;html=1;fillColor=#dae8fc;strokeColor=#6c8ebf;" parent="1" vertex="1">
          <mxGeometry x="555" y="855.03" width="40" height="20" as="geometry" />
        </mxCell>
        <mxCell id="96Z2TRk2g2hctk14bLeR-159" style="edgeStyle=orthogonalEdgeStyle;rounded=0;orthogonalLoop=1;jettySize=auto;html=1;exitX=1;exitY=0.5;exitDx=0;exitDy=0;entryX=0.5;entryY=0;entryDx=0;entryDy=0;" parent="1" source="96Z2TRk2g2hctk14bLeR-146" target="96Z2TRk2g2hctk14bLeR-156" edge="1">
          <mxGeometry relative="1" as="geometry" />
        </mxCell>
        <mxCell id="96Z2TRk2g2hctk14bLeR-146" value="BConv" style="rounded=1;whiteSpace=wrap;html=1;fillColor=#dae8fc;strokeColor=#6c8ebf;" parent="1" vertex="1">
          <mxGeometry x="351" y="815.03" width="40" height="20" as="geometry" />
        </mxCell>
        <mxCell id="96Z2TRk2g2hctk14bLeR-157" style="edgeStyle=orthogonalEdgeStyle;rounded=0;orthogonalLoop=1;jettySize=auto;html=1;exitX=1;exitY=0.5;exitDx=0;exitDy=0;entryX=0;entryY=0.5;entryDx=0;entryDy=0;" parent="1" source="96Z2TRk2g2hctk14bLeR-147" target="96Z2TRk2g2hctk14bLeR-156" edge="1">
          <mxGeometry relative="1" as="geometry" />
        </mxCell>
        <mxCell id="96Z2TRk2g2hctk14bLeR-147" value="BConv" style="rounded=1;whiteSpace=wrap;html=1;fillColor=#dae8fc;strokeColor=#6c8ebf;" parent="1" vertex="1">
          <mxGeometry x="455" y="855.03" width="40" height="20" as="geometry" />
        </mxCell>
        <mxCell id="96Z2TRk2g2hctk14bLeR-162" style="edgeStyle=orthogonalEdgeStyle;rounded=0;orthogonalLoop=1;jettySize=auto;html=1;exitX=0;exitY=0.5;exitDx=0;exitDy=0;entryX=0.5;entryY=1;entryDx=0;entryDy=0;" parent="1" source="96Z2TRk2g2hctk14bLeR-148" target="96Z2TRk2g2hctk14bLeR-156" edge="1">
          <mxGeometry relative="1" as="geometry">
            <mxPoint x="415" y="895.03" as="targetPoint" />
            <Array as="points">
              <mxPoint x="415" y="900.03" />
              <mxPoint x="526" y="900.03" />
            </Array>
          </mxGeometry>
        </mxCell>
        <mxCell id="96Z2TRk2g2hctk14bLeR-148" value="BConv" style="rounded=1;whiteSpace=wrap;html=1;fillColor=#dae8fc;strokeColor=#6c8ebf;" parent="1" vertex="1">
          <mxGeometry x="415" y="855.03" width="40" height="20" as="geometry" />
        </mxCell>
        <mxCell id="96Z2TRk2g2hctk14bLeR-149" value="BConv" style="rounded=1;whiteSpace=wrap;html=1;fillColor=#dae8fc;strokeColor=#6c8ebf;" parent="1" vertex="1">
          <mxGeometry x="375" y="855.03" width="40" height="20" as="geometry" />
        </mxCell>
        <mxCell id="96Z2TRk2g2hctk14bLeR-160" style="edgeStyle=orthogonalEdgeStyle;rounded=0;orthogonalLoop=1;jettySize=auto;html=1;exitX=0;exitY=0.5;exitDx=0;exitDy=0;entryX=0.5;entryY=1;entryDx=0;entryDy=0;" parent="1" source="96Z2TRk2g2hctk14bLeR-150" target="96Z2TRk2g2hctk14bLeR-156" edge="1">
          <mxGeometry relative="1" as="geometry">
            <Array as="points">
              <mxPoint x="335" y="900.03" />
              <mxPoint x="526" y="900.03" />
            </Array>
          </mxGeometry>
        </mxCell>
        <mxCell id="96Z2TRk2g2hctk14bLeR-150" value="BConv" style="rounded=1;whiteSpace=wrap;html=1;fillColor=#dae8fc;strokeColor=#6c8ebf;" parent="1" vertex="1">
          <mxGeometry x="335" y="855.03" width="40" height="20" as="geometry" />
        </mxCell>
        <mxCell id="96Z2TRk2g2hctk14bLeR-158" style="edgeStyle=orthogonalEdgeStyle;rounded=0;orthogonalLoop=1;jettySize=auto;html=1;exitX=1;exitY=0.5;exitDx=0;exitDy=0;entryX=0;entryY=0.5;entryDx=0;entryDy=0;" parent="1" source="96Z2TRk2g2hctk14bLeR-156" target="96Z2TRk2g2hctk14bLeR-145" edge="1">
          <mxGeometry relative="1" as="geometry" />
        </mxCell>
        <mxCell id="96Z2TRk2g2hctk14bLeR-156" value="cat" style="ellipse;whiteSpace=wrap;html=1;rounded=1;" parent="1" vertex="1">
          <mxGeometry x="511" y="850.03" width="30" height="30" as="geometry" />
        </mxCell>
        <mxCell id="96Z2TRk2g2hctk14bLeR-181" value="Catconv" style="rounded=1;whiteSpace=wrap;html=1;fillColor=#cdeb8b;strokeColor=#36393d;" parent="1" vertex="1">
          <mxGeometry x="200" y="962.5" width="50" height="20" as="geometry" />
        </mxCell>
        <mxCell id="96Z2TRk2g2hctk14bLeR-182" value="BConv" style="rounded=1;whiteSpace=wrap;html=1;fillColor=#dae8fc;strokeColor=#6c8ebf;" parent="1" vertex="1">
          <mxGeometry x="291" y="962.5" width="39" height="20" as="geometry" />
        </mxCell>
        <mxCell id="96Z2TRk2g2hctk14bLeR-184" style="edgeStyle=orthogonalEdgeStyle;rounded=0;orthogonalLoop=1;jettySize=auto;html=1;exitX=1;exitY=0.5;exitDx=0;exitDy=0;entryX=0.5;entryY=0;entryDx=0;entryDy=0;" parent="1" source="96Z2TRk2g2hctk14bLeR-185" target="96Z2TRk2g2hctk14bLeR-194" edge="1">
          <mxGeometry relative="1" as="geometry" />
        </mxCell>
        <mxCell id="96Z2TRk2g2hctk14bLeR-185" value="BConv" style="rounded=1;whiteSpace=wrap;html=1;fillColor=#dae8fc;strokeColor=#6c8ebf;" parent="1" vertex="1">
          <mxGeometry x="346" y="922.5" width="40" height="20" as="geometry" />
        </mxCell>
        <mxCell id="96Z2TRk2g2hctk14bLeR-186" style="edgeStyle=orthogonalEdgeStyle;rounded=0;orthogonalLoop=1;jettySize=auto;html=1;exitX=1;exitY=0.5;exitDx=0;exitDy=0;entryX=0;entryY=0.5;entryDx=0;entryDy=0;" parent="1" source="96Z2TRk2g2hctk14bLeR-187" target="96Z2TRk2g2hctk14bLeR-194" edge="1">
          <mxGeometry relative="1" as="geometry" />
        </mxCell>
        <mxCell id="96Z2TRk2g2hctk14bLeR-187" value="BConv" style="rounded=1;whiteSpace=wrap;html=1;fillColor=#dae8fc;strokeColor=#6c8ebf;" parent="1" vertex="1">
          <mxGeometry x="450" y="962.5" width="40" height="20" as="geometry" />
        </mxCell>
        <mxCell id="96Z2TRk2g2hctk14bLeR-188" style="edgeStyle=orthogonalEdgeStyle;rounded=0;orthogonalLoop=1;jettySize=auto;html=1;exitX=0;exitY=0.5;exitDx=0;exitDy=0;entryX=0.5;entryY=1;entryDx=0;entryDy=0;" parent="1" source="96Z2TRk2g2hctk14bLeR-189" target="96Z2TRk2g2hctk14bLeR-194" edge="1">
          <mxGeometry relative="1" as="geometry">
            <mxPoint x="410" y="1002.5" as="targetPoint" />
            <Array as="points">
              <mxPoint x="410" y="1007.5" />
              <mxPoint x="521" y="1007.5" />
            </Array>
          </mxGeometry>
        </mxCell>
        <mxCell id="96Z2TRk2g2hctk14bLeR-189" value="BConv" style="rounded=1;whiteSpace=wrap;html=1;fillColor=#dae8fc;strokeColor=#6c8ebf;" parent="1" vertex="1">
          <mxGeometry x="410" y="962.5" width="40" height="20" as="geometry" />
        </mxCell>
        <mxCell id="96Z2TRk2g2hctk14bLeR-190" value="BConv" style="rounded=1;whiteSpace=wrap;html=1;fillColor=#dae8fc;strokeColor=#6c8ebf;" parent="1" vertex="1">
          <mxGeometry x="370" y="962.5" width="40" height="20" as="geometry" />
        </mxCell>
        <mxCell id="96Z2TRk2g2hctk14bLeR-191" style="edgeStyle=orthogonalEdgeStyle;rounded=0;orthogonalLoop=1;jettySize=auto;html=1;exitX=0;exitY=0.5;exitDx=0;exitDy=0;entryX=0.5;entryY=1;entryDx=0;entryDy=0;" parent="1" source="96Z2TRk2g2hctk14bLeR-192" target="96Z2TRk2g2hctk14bLeR-194" edge="1">
          <mxGeometry relative="1" as="geometry">
            <Array as="points">
              <mxPoint x="330" y="1007.5" />
              <mxPoint x="521" y="1007.5" />
            </Array>
          </mxGeometry>
        </mxCell>
        <mxCell id="96Z2TRk2g2hctk14bLeR-192" value="&lt;p style=&quot;line-height: 120%;&quot;&gt;BConv&lt;br&gt;&lt;/p&gt;" style="rounded=1;whiteSpace=wrap;html=1;fillColor=#dae8fc;strokeColor=#6c8ebf;" parent="1" vertex="1">
          <mxGeometry x="330" y="962.5" width="40" height="20" as="geometry" />
        </mxCell>
        <mxCell id="96Z2TRk2g2hctk14bLeR-193" style="edgeStyle=orthogonalEdgeStyle;rounded=0;orthogonalLoop=1;jettySize=auto;html=1;exitX=1;exitY=0.5;exitDx=0;exitDy=0;entryX=0;entryY=0.5;entryDx=0;entryDy=0;" parent="1" source="96Z2TRk2g2hctk14bLeR-194" edge="1">
          <mxGeometry relative="1" as="geometry">
            <mxPoint x="550" y="972.4999999999998" as="targetPoint" />
          </mxGeometry>
        </mxCell>
        <mxCell id="96Z2TRk2g2hctk14bLeR-194" value="cat" style="ellipse;whiteSpace=wrap;html=1;rounded=1;" parent="1" vertex="1">
          <mxGeometry x="506" y="957.5" width="30" height="30" as="geometry" />
        </mxCell>
        <mxCell id="96Z2TRk2g2hctk14bLeR-197" value="MPConv" style="rounded=1;whiteSpace=wrap;html=1;" parent="1" vertex="1">
          <mxGeometry x="560" y="962.5" width="50" height="20" as="geometry" />
        </mxCell>
        <mxCell id="96Z2TRk2g2hctk14bLeR-198" value="BConv" style="rounded=1;whiteSpace=wrap;html=1;fillColor=#dae8fc;strokeColor=#6c8ebf;" parent="1" vertex="1">
          <mxGeometry x="662" y="1000" width="40" height="20" as="geometry" />
        </mxCell>
        <mxCell id="96Z2TRk2g2hctk14bLeR-200" value="Maxpooling" style="rounded=1;whiteSpace=wrap;html=1;fillColor=#bac8d3;strokeColor=#23445d;" parent="1" vertex="1">
          <mxGeometry x="662" y="920" width="74" height="20" as="geometry" />
        </mxCell>
        <mxCell id="96Z2TRk2g2hctk14bLeR-222" style="edgeStyle=orthogonalEdgeStyle;rounded=0;orthogonalLoop=1;jettySize=auto;html=1;exitX=1;exitY=0.5;exitDx=0;exitDy=0;entryX=0.5;entryY=1;entryDx=0;entryDy=0;" parent="1" source="96Z2TRk2g2hctk14bLeR-207" target="96Z2TRk2g2hctk14bLeR-218" edge="1">
          <mxGeometry relative="1" as="geometry" />
        </mxCell>
        <mxCell id="96Z2TRk2g2hctk14bLeR-207" value="BConv" style="rounded=1;whiteSpace=wrap;html=1;fillColor=#dae8fc;strokeColor=#6c8ebf;" parent="1" vertex="1">
          <mxGeometry x="702" y="1000" width="40" height="20" as="geometry" />
        </mxCell>
        <mxCell id="96Z2TRk2g2hctk14bLeR-219" style="edgeStyle=orthogonalEdgeStyle;rounded=0;orthogonalLoop=1;jettySize=auto;html=1;exitX=1;exitY=0.5;exitDx=0;exitDy=0;entryX=0.5;entryY=0;entryDx=0;entryDy=0;" parent="1" source="96Z2TRk2g2hctk14bLeR-202" target="96Z2TRk2g2hctk14bLeR-218" edge="1">
          <mxGeometry relative="1" as="geometry" />
        </mxCell>
        <mxCell id="96Z2TRk2g2hctk14bLeR-202" value="BConv" style="rounded=1;whiteSpace=wrap;html=1;fillColor=#dae8fc;strokeColor=#6c8ebf;" parent="1" vertex="1">
          <mxGeometry x="736" y="920" width="40" height="20" as="geometry" />
        </mxCell>
        <mxCell id="96Z2TRk2g2hctk14bLeR-218" value="cat" style="ellipse;whiteSpace=wrap;html=1;rounded=1;" parent="1" vertex="1">
          <mxGeometry x="776" y="957.5" width="30" height="30" as="geometry" />
        </mxCell>
        <mxCell id="96Z2TRk2g2hctk14bLeR-230" value="SPPCSPC-XS" style="rounded=1;whiteSpace=wrap;html=1;fillColor=#ffff88;strokeColor=#36393d;" parent="1" vertex="1">
          <mxGeometry x="198.5" y="1064.38" width="81.5" height="20" as="geometry" />
        </mxCell>
        <mxCell id="96Z2TRk2g2hctk14bLeR-231" value="GhostConv" style="rounded=1;whiteSpace=wrap;html=1;fillColor=#e1d5e7;strokeColor=#9673a6;" parent="1" vertex="1">
          <mxGeometry x="311" y="1063.74" width="69" height="20" as="geometry" />
        </mxCell>
        <mxCell id="96Z2TRk2g2hctk14bLeR-258" style="edgeStyle=orthogonalEdgeStyle;rounded=0;orthogonalLoop=1;jettySize=auto;html=1;exitX=1;exitY=0.5;exitDx=0;exitDy=0;entryX=0;entryY=0.5;entryDx=0;entryDy=0;" parent="1" target="96Z2TRk2g2hctk14bLeR-253" edge="1">
          <mxGeometry relative="1" as="geometry">
            <mxPoint x="517" y="1073.7499999999998" as="sourcePoint" />
          </mxGeometry>
        </mxCell>
        <mxCell id="96Z2TRk2g2hctk14bLeR-260" style="edgeStyle=orthogonalEdgeStyle;rounded=0;orthogonalLoop=1;jettySize=auto;html=1;exitX=1;exitY=0.5;exitDx=0;exitDy=0;entryX=0;entryY=0.5;entryDx=0;entryDy=0;" parent="1" target="96Z2TRk2g2hctk14bLeR-250" edge="1">
          <mxGeometry relative="1" as="geometry">
            <Array as="points">
              <mxPoint x="524" y="1073.75" />
              <mxPoint x="524" y="1041.75" />
            </Array>
            <mxPoint x="517" y="1073.7499999999998" as="sourcePoint" />
          </mxGeometry>
        </mxCell>
        <mxCell id="96Z2TRk2g2hctk14bLeR-261" style="edgeStyle=orthogonalEdgeStyle;rounded=0;orthogonalLoop=1;jettySize=auto;html=1;exitX=1;exitY=0.5;exitDx=0;exitDy=0;entryX=0;entryY=0.5;entryDx=0;entryDy=0;" parent="1" target="96Z2TRk2g2hctk14bLeR-254" edge="1">
          <mxGeometry relative="1" as="geometry">
            <Array as="points">
              <mxPoint x="523" y="1074" />
              <mxPoint x="523" y="1101" />
            </Array>
            <mxPoint x="517" y="1073.7499999999998" as="sourcePoint" />
          </mxGeometry>
        </mxCell>
        <mxCell id="96Z2TRk2g2hctk14bLeR-238" value="GhostConv" style="rounded=1;whiteSpace=wrap;html=1;fillColor=#e1d5e7;strokeColor=#9673a6;" parent="1" vertex="1">
          <mxGeometry x="449" y="1063.74" width="70" height="20" as="geometry" />
        </mxCell>
        <mxCell id="96Z2TRk2g2hctk14bLeR-240" value="GhostConv" style="rounded=1;whiteSpace=wrap;html=1;fillColor=#e1d5e7;strokeColor=#9673a6;" parent="1" vertex="1">
          <mxGeometry x="380" y="1063.74" width="69" height="20" as="geometry" />
        </mxCell>
        <mxCell id="96Z2TRk2g2hctk14bLeR-266" style="edgeStyle=orthogonalEdgeStyle;rounded=0;orthogonalLoop=1;jettySize=auto;html=1;exitX=1;exitY=0.5;exitDx=0;exitDy=0;entryX=0;entryY=0.5;entryDx=0;entryDy=0;" parent="1" source="96Z2TRk2g2hctk14bLeR-242" target="96Z2TRk2g2hctk14bLeR-265" edge="1">
          <mxGeometry relative="1" as="geometry" />
        </mxCell>
        <mxCell id="96Z2TRk2g2hctk14bLeR-242" value="cat" style="ellipse;whiteSpace=wrap;html=1;rounded=1;" parent="1" vertex="1">
          <mxGeometry x="663" y="1048.75" width="30" height="30" as="geometry" />
        </mxCell>
        <mxCell id="96Z2TRk2g2hctk14bLeR-262" style="edgeStyle=orthogonalEdgeStyle;rounded=0;orthogonalLoop=1;jettySize=auto;html=1;exitX=1;exitY=0.5;exitDx=0;exitDy=0;entryX=0;entryY=0.5;entryDx=0;entryDy=0;" parent="1" source="96Z2TRk2g2hctk14bLeR-250" target="96Z2TRk2g2hctk14bLeR-242" edge="1">
          <mxGeometry relative="1" as="geometry" />
        </mxCell>
        <mxCell id="96Z2TRk2g2hctk14bLeR-250" value="Maxpooling5" style="rounded=1;whiteSpace=wrap;html=1;fillColor=#bac8d3;strokeColor=#23445d;" parent="1" vertex="1">
          <mxGeometry x="544" y="1031.25" width="80" height="20" as="geometry" />
        </mxCell>
        <mxCell id="96Z2TRk2g2hctk14bLeR-263" style="edgeStyle=orthogonalEdgeStyle;rounded=0;orthogonalLoop=1;jettySize=auto;html=1;exitX=1;exitY=0.5;exitDx=0;exitDy=0;entryX=0;entryY=0.5;entryDx=0;entryDy=0;" parent="1" source="96Z2TRk2g2hctk14bLeR-253" target="96Z2TRk2g2hctk14bLeR-242" edge="1">
          <mxGeometry relative="1" as="geometry" />
        </mxCell>
        <mxCell id="96Z2TRk2g2hctk14bLeR-253" value="Maxpooling9" style="rounded=1;whiteSpace=wrap;html=1;fillColor=#bac8d3;strokeColor=#23445d;" parent="1" vertex="1">
          <mxGeometry x="544" y="1063.75" width="80" height="20" as="geometry" />
        </mxCell>
        <mxCell id="96Z2TRk2g2hctk14bLeR-264" style="edgeStyle=orthogonalEdgeStyle;rounded=0;orthogonalLoop=1;jettySize=auto;html=1;exitX=1;exitY=0.5;exitDx=0;exitDy=0;entryX=0.5;entryY=1;entryDx=0;entryDy=0;" parent="1" source="96Z2TRk2g2hctk14bLeR-254" target="96Z2TRk2g2hctk14bLeR-242" edge="1">
          <mxGeometry relative="1" as="geometry" />
        </mxCell>
        <mxCell id="96Z2TRk2g2hctk14bLeR-254" value="Maxpooling13" style="rounded=1;whiteSpace=wrap;html=1;fillColor=#bac8d3;strokeColor=#23445d;" parent="1" vertex="1">
          <mxGeometry x="544" y="1091.25" width="80" height="20" as="geometry" />
        </mxCell>
        <mxCell id="96Z2TRk2g2hctk14bLeR-265" value="GhostConv" style="rounded=1;whiteSpace=wrap;html=1;fillColor=#e1d5e7;strokeColor=#9673a6;" parent="1" vertex="1">
          <mxGeometry x="713" y="1053.75" width="67" height="20" as="geometry" />
        </mxCell>
        <mxCell id="96Z2TRk2g2hctk14bLeR-269" value="" style="edgeStyle=orthogonalEdgeStyle;rounded=0;orthogonalLoop=1;jettySize=auto;html=1;" parent="1" target="96Z2TRk2g2hctk14bLeR-268" edge="1">
          <mxGeometry relative="1" as="geometry">
            <mxPoint x="830" y="1063.8275862068965" as="sourcePoint" />
          </mxGeometry>
        </mxCell>
        <mxCell id="96Z2TRk2g2hctk14bLeR-267" value="GhostConv" style="rounded=1;whiteSpace=wrap;html=1;fillColor=#e1d5e7;strokeColor=#9673a6;" parent="1" vertex="1">
          <mxGeometry x="781" y="1053.75" width="69" height="20" as="geometry" />
        </mxCell>
        <mxCell id="96Z2TRk2g2hctk14bLeR-271" value="" style="edgeStyle=orthogonalEdgeStyle;rounded=0;orthogonalLoop=1;jettySize=auto;html=1;" parent="1" source="96Z2TRk2g2hctk14bLeR-268" target="96Z2TRk2g2hctk14bLeR-270" edge="1">
          <mxGeometry relative="1" as="geometry" />
        </mxCell>
        <mxCell id="96Z2TRk2g2hctk14bLeR-268" value="cat" style="ellipse;whiteSpace=wrap;html=1;rounded=1;" parent="1" vertex="1">
          <mxGeometry x="870" y="1048.75" width="30" height="30" as="geometry" />
        </mxCell>
        <mxCell id="96Z2TRk2g2hctk14bLeR-270" value="GhostConv" style="rounded=1;whiteSpace=wrap;html=1;fillColor=#e1d5e7;strokeColor=#9673a6;" parent="1" vertex="1">
          <mxGeometry x="920" y="1053.75" width="70" height="20" as="geometry" />
        </mxCell>
        <mxCell id="96Z2TRk2g2hctk14bLeR-274" style="edgeStyle=orthogonalEdgeStyle;rounded=0;orthogonalLoop=1;jettySize=auto;html=1;exitX=1;exitY=0.5;exitDx=0;exitDy=0;entryX=0.5;entryY=1;entryDx=0;entryDy=0;" parent="1" target="96Z2TRk2g2hctk14bLeR-242" edge="1">
          <mxGeometry relative="1" as="geometry">
            <mxPoint x="574" y="1138.75" as="sourcePoint" />
          </mxGeometry>
        </mxCell>
        <mxCell id="96Z2TRk2g2hctk14bLeR-275" style="edgeStyle=orthogonalEdgeStyle;rounded=0;orthogonalLoop=1;jettySize=auto;html=1;exitX=1;exitY=0.5;exitDx=0;exitDy=0;entryX=0.5;entryY=1;entryDx=0;entryDy=0;" parent="1" source="96Z2TRk2g2hctk14bLeR-272" target="96Z2TRk2g2hctk14bLeR-268" edge="1">
          <mxGeometry relative="1" as="geometry">
            <mxPoint x="574" y="1138.75" as="sourcePoint" />
          </mxGeometry>
        </mxCell>
        <mxCell id="96Z2TRk2g2hctk14bLeR-272" value="GhostConv" style="rounded=1;whiteSpace=wrap;html=1;fillColor=#e1d5e7;strokeColor=#9673a6;" parent="1" vertex="1">
          <mxGeometry x="472.5" y="1129.38" width="77.5" height="20" as="geometry" />
        </mxCell>
        <mxCell id="96Z2TRk2g2hctk14bLeR-280" value="=" style="text;html=1;strokeColor=none;fillColor=none;align=center;verticalAlign=middle;whiteSpace=wrap;rounded=0;strokeWidth=1;fontSize=30;" parent="1" vertex="1">
          <mxGeometry x="324" y="750" width="27" height="30" as="geometry" />
        </mxCell>
        <mxCell id="96Z2TRk2g2hctk14bLeR-285" value="" style="edgeStyle=orthogonalEdgeStyle;rounded=0;orthogonalLoop=1;jettySize=auto;html=1;fontSize=30;" parent="1" source="96Z2TRk2g2hctk14bLeR-281" target="96Z2TRk2g2hctk14bLeR-21" edge="1">
          <mxGeometry relative="1" as="geometry" />
        </mxCell>
        <mxCell id="96Z2TRk2g2hctk14bLeR-281" value="MPConv" style="rounded=1;whiteSpace=wrap;html=1;fillColor=#fad9d5;strokeColor=#ae4132;" parent="1" vertex="1">
          <mxGeometry x="36" y="465" width="120" height="20" as="geometry" />
        </mxCell>
        <mxCell id="96Z2TRk2g2hctk14bLeR-288" style="edgeStyle=orthogonalEdgeStyle;rounded=0;orthogonalLoop=1;jettySize=auto;html=1;exitX=1;exitY=0.5;exitDx=0;exitDy=0;entryX=0;entryY=0.5;entryDx=0;entryDy=0;fontSize=30;" parent="1" source="96Z2TRk2g2hctk14bLeR-286" target="96Z2TRk2g2hctk14bLeR-143" edge="1">
          <mxGeometry relative="1" as="geometry" />
        </mxCell>
        <mxCell id="96Z2TRk2g2hctk14bLeR-289" style="edgeStyle=orthogonalEdgeStyle;rounded=0;orthogonalLoop=1;jettySize=auto;html=1;exitX=1;exitY=0.5;exitDx=0;exitDy=0;entryX=0;entryY=0.5;entryDx=0;entryDy=0;fontSize=30;" parent="1" source="96Z2TRk2g2hctk14bLeR-286" target="96Z2TRk2g2hctk14bLeR-146" edge="1">
          <mxGeometry relative="1" as="geometry">
            <Array as="points">
              <mxPoint x="285" y="865.03" />
              <mxPoint x="285" y="825.03" />
            </Array>
          </mxGeometry>
        </mxCell>
        <mxCell id="96Z2TRk2g2hctk14bLeR-286" value="=" style="text;html=1;strokeColor=none;fillColor=none;align=center;verticalAlign=middle;whiteSpace=wrap;rounded=0;strokeWidth=1;fontSize=30;" parent="1" vertex="1">
          <mxGeometry x="249" y="850.03" width="27" height="30" as="geometry" />
        </mxCell>
        <mxCell id="96Z2TRk2g2hctk14bLeR-291" style="edgeStyle=orthogonalEdgeStyle;rounded=0;orthogonalLoop=1;jettySize=auto;html=1;exitX=1;exitY=0.5;exitDx=0;exitDy=0;entryX=0;entryY=0.5;entryDx=0;entryDy=0;fontSize=30;" parent="1" source="96Z2TRk2g2hctk14bLeR-290" target="96Z2TRk2g2hctk14bLeR-182" edge="1">
          <mxGeometry relative="1" as="geometry" />
        </mxCell>
        <mxCell id="96Z2TRk2g2hctk14bLeR-292" style="edgeStyle=orthogonalEdgeStyle;rounded=0;orthogonalLoop=1;jettySize=auto;html=1;exitX=1;exitY=0.5;exitDx=0;exitDy=0;entryX=0;entryY=0.5;entryDx=0;entryDy=0;fontSize=30;" parent="1" source="96Z2TRk2g2hctk14bLeR-290" target="96Z2TRk2g2hctk14bLeR-185" edge="1">
          <mxGeometry relative="1" as="geometry">
            <Array as="points">
              <mxPoint x="280" y="972.5" />
              <mxPoint x="280" y="932.5" />
            </Array>
          </mxGeometry>
        </mxCell>
        <mxCell id="96Z2TRk2g2hctk14bLeR-290" value="=" style="text;html=1;strokeColor=none;fillColor=none;align=center;verticalAlign=middle;whiteSpace=wrap;rounded=0;strokeWidth=1;fontSize=30;" parent="1" vertex="1">
          <mxGeometry x="246.5" y="957.5" width="27" height="30" as="geometry" />
        </mxCell>
        <mxCell id="96Z2TRk2g2hctk14bLeR-296" style="edgeStyle=orthogonalEdgeStyle;rounded=0;orthogonalLoop=1;jettySize=auto;html=1;entryX=0;entryY=0.5;entryDx=0;entryDy=0;fontSize=30;exitX=0;exitY=0.5;exitDx=0;exitDy=0;" parent="1" source="96Z2TRk2g2hctk14bLeR-231" target="96Z2TRk2g2hctk14bLeR-272" edge="1">
          <mxGeometry relative="1" as="geometry">
            <Array as="points">
              <mxPoint x="300" y="1074" />
              <mxPoint x="300" y="1139" />
            </Array>
            <mxPoint x="320" y="1080" as="sourcePoint" />
          </mxGeometry>
        </mxCell>
        <mxCell id="96Z2TRk2g2hctk14bLeR-293" value="=" style="text;html=1;strokeColor=none;fillColor=none;align=center;verticalAlign=middle;whiteSpace=wrap;rounded=0;strokeWidth=1;fontSize=30;" parent="1" vertex="1">
          <mxGeometry x="280" y="1059.38" width="27" height="30" as="geometry" />
        </mxCell>
        <mxCell id="96Z2TRk2g2hctk14bLeR-298" style="edgeStyle=orthogonalEdgeStyle;rounded=0;orthogonalLoop=1;jettySize=auto;html=1;exitX=1;exitY=0.5;exitDx=0;exitDy=0;entryX=0;entryY=0.5;entryDx=0;entryDy=0;fontSize=30;" parent="1" source="96Z2TRk2g2hctk14bLeR-297" target="96Z2TRk2g2hctk14bLeR-200" edge="1">
          <mxGeometry relative="1" as="geometry">
            <Array as="points">
              <mxPoint x="650" y="972" />
              <mxPoint x="650" y="931" />
            </Array>
          </mxGeometry>
        </mxCell>
        <mxCell id="96Z2TRk2g2hctk14bLeR-300" style="edgeStyle=orthogonalEdgeStyle;rounded=0;orthogonalLoop=1;jettySize=auto;html=1;exitX=1;exitY=0.5;exitDx=0;exitDy=0;entryX=0;entryY=0.5;entryDx=0;entryDy=0;fontSize=30;" parent="1" source="96Z2TRk2g2hctk14bLeR-297" target="96Z2TRk2g2hctk14bLeR-198" edge="1">
          <mxGeometry relative="1" as="geometry">
            <Array as="points">
              <mxPoint x="650" y="972" />
              <mxPoint x="650" y="1010" />
            </Array>
          </mxGeometry>
        </mxCell>
        <mxCell id="96Z2TRk2g2hctk14bLeR-297" value="=" style="text;html=1;strokeColor=none;fillColor=none;align=center;verticalAlign=middle;whiteSpace=wrap;rounded=0;strokeWidth=1;fontSize=30;" parent="1" vertex="1">
          <mxGeometry x="610" y="957.5" width="27" height="30" as="geometry" />
        </mxCell>
        <mxCell id="96Z2TRk2g2hctk14bLeR-301" value="REP" style="rounded=1;whiteSpace=wrap;html=1;fillColor=#fad7ac;strokeColor=#b46504;" parent="1" vertex="1">
          <mxGeometry x="637" y="855.03" width="40" height="20" as="geometry" />
        </mxCell>
        <mxCell id="96Z2TRk2g2hctk14bLeR-302" value="Conv" style="rounded=1;whiteSpace=wrap;html=1;fillColor=#eeeeee;strokeColor=#36393d;" parent="1" vertex="1">
          <mxGeometry x="710" y="855.03" width="40" height="20" as="geometry" />
        </mxCell>
        <mxCell id="96Z2TRk2g2hctk14bLeR-303" value="BN" style="rounded=1;whiteSpace=wrap;html=1;fillColor=#ffe6cc;strokeColor=#d79b00;" parent="1" vertex="1">
          <mxGeometry x="750" y="855.03" width="40" height="20" as="geometry" />
        </mxCell>
        <mxCell id="96Z2TRk2g2hctk14bLeR-304" value="=" style="text;html=1;strokeColor=none;fillColor=none;align=center;verticalAlign=middle;whiteSpace=wrap;rounded=0;strokeWidth=1;fontSize=30;" parent="1" vertex="1">
          <mxGeometry x="681" y="850.03" width="27" height="30" as="geometry" />
        </mxCell>
        <mxCell id="96Z2TRk2g2hctk14bLeR-305" value="deploy" style="text;html=1;strokeColor=none;fillColor=none;align=center;verticalAlign=middle;whiteSpace=wrap;rounded=0;strokeWidth=1;fontSize=12;" parent="1" vertex="1">
          <mxGeometry x="637" y="825.03" width="39" height="30" as="geometry" />
        </mxCell>
        <mxCell id="96Z2TRk2g2hctk14bLeR-311" value="REP" style="rounded=1;whiteSpace=wrap;html=1;fillColor=#fad7ac;strokeColor=#b46504;" parent="1" vertex="1">
          <mxGeometry x="605.5" y="760" width="40" height="20" as="geometry" />
        </mxCell>
        <mxCell id="96Z2TRk2g2hctk14bLeR-312" value="Conv" style="rounded=1;whiteSpace=wrap;html=1;fillColor=#eeeeee;strokeColor=#36393d;" parent="1" vertex="1">
          <mxGeometry x="690" y="760" width="40" height="20" as="geometry" />
        </mxCell>
        <mxCell id="96Z2TRk2g2hctk14bLeR-322" style="edgeStyle=orthogonalEdgeStyle;rounded=0;orthogonalLoop=1;jettySize=auto;html=1;exitX=1;exitY=0.5;exitDx=0;exitDy=0;entryX=0;entryY=0.5;entryDx=0;entryDy=0;fontSize=10;" parent="1" source="96Z2TRk2g2hctk14bLeR-313" target="96Z2TRk2g2hctk14bLeR-321" edge="1">
          <mxGeometry relative="1" as="geometry" />
        </mxCell>
        <mxCell id="96Z2TRk2g2hctk14bLeR-313" value="BN" style="rounded=1;whiteSpace=wrap;html=1;fillColor=#ffe6cc;strokeColor=#d79b00;" parent="1" vertex="1">
          <mxGeometry x="730" y="760" width="40" height="20" as="geometry" />
        </mxCell>
        <mxCell id="96Z2TRk2g2hctk14bLeR-314" value="train" style="text;html=1;strokeColor=none;fillColor=none;align=center;verticalAlign=middle;whiteSpace=wrap;rounded=0;strokeWidth=1;fontSize=12;" parent="1" vertex="1">
          <mxGeometry x="605.5" y="730" width="39" height="30" as="geometry" />
        </mxCell>
        <mxCell id="96Z2TRk2g2hctk14bLeR-315" value="=" style="text;html=1;strokeColor=none;fillColor=none;align=center;verticalAlign=middle;whiteSpace=wrap;rounded=0;strokeWidth=1;fontSize=30;" parent="1" vertex="1">
          <mxGeometry x="645.5" y="755" width="27" height="30" as="geometry" />
        </mxCell>
        <mxCell id="96Z2TRk2g2hctk14bLeR-318" value="Conv" style="rounded=1;whiteSpace=wrap;html=1;fillColor=#eeeeee;strokeColor=#36393d;" parent="1" vertex="1">
          <mxGeometry x="690" y="720" width="40" height="20" as="geometry" />
        </mxCell>
        <mxCell id="96Z2TRk2g2hctk14bLeR-319" value="BN" style="rounded=1;whiteSpace=wrap;html=1;fillColor=#ffe6cc;strokeColor=#d79b00;" parent="1" vertex="1">
          <mxGeometry x="730" y="720" width="40" height="20" as="geometry" />
        </mxCell>
        <mxCell id="96Z2TRk2g2hctk14bLeR-321" value="add" style="ellipse;whiteSpace=wrap;html=1;rounded=1;" parent="1" vertex="1">
          <mxGeometry x="786" y="755" width="30" height="30" as="geometry" />
        </mxCell>
        <mxCell id="96Z2TRk2g2hctk14bLeR-323" value="BN" style="rounded=1;whiteSpace=wrap;html=1;fillColor=#ffe6cc;strokeColor=#d79b00;" parent="1" vertex="1">
          <mxGeometry x="711" y="800" width="40" height="20" as="geometry" />
        </mxCell>
        <mxCell id="96Z2TRk2g2hctk14bLeR-324" value="" style="endArrow=classic;html=1;rounded=0;fontSize=10;entryX=0;entryY=0.5;entryDx=0;entryDy=0;exitX=1;exitY=0.5;exitDx=0;exitDy=0;" parent="1" source="96Z2TRk2g2hctk14bLeR-315" target="96Z2TRk2g2hctk14bLeR-318" edge="1">
          <mxGeometry width="50" height="50" relative="1" as="geometry">
            <mxPoint x="671" y="770" as="sourcePoint" />
            <mxPoint x="721" y="720" as="targetPoint" />
          </mxGeometry>
        </mxCell>
        <mxCell id="96Z2TRk2g2hctk14bLeR-325" value="" style="endArrow=classic;html=1;rounded=0;fontSize=10;entryX=0;entryY=0.5;entryDx=0;entryDy=0;exitX=1;exitY=0.5;exitDx=0;exitDy=0;" parent="1" source="96Z2TRk2g2hctk14bLeR-315" target="96Z2TRk2g2hctk14bLeR-312" edge="1">
          <mxGeometry width="50" height="50" relative="1" as="geometry">
            <mxPoint x="670" y="770" as="sourcePoint" />
            <mxPoint x="700" y="740" as="targetPoint" />
          </mxGeometry>
        </mxCell>
        <mxCell id="96Z2TRk2g2hctk14bLeR-326" value="" style="endArrow=none;dashed=1;html=1;dashPattern=1 3;strokeWidth=2;rounded=0;fontSize=10;edgeStyle=orthogonalEdgeStyle;curved=1;exitX=1;exitY=0.5;exitDx=0;exitDy=0;entryX=0;entryY=0.5;entryDx=0;entryDy=0;" parent="1" source="96Z2TRk2g2hctk14bLeR-315" target="96Z2TRk2g2hctk14bLeR-323" edge="1">
          <mxGeometry width="50" height="50" relative="1" as="geometry">
            <mxPoint x="680" y="800" as="sourcePoint" />
            <mxPoint x="740" y="780" as="targetPoint" />
          </mxGeometry>
        </mxCell>
        <mxCell id="96Z2TRk2g2hctk14bLeR-329" value="" style="endArrow=none;dashed=1;html=1;dashPattern=1 3;strokeWidth=2;rounded=0;fontSize=10;exitX=1;exitY=0.5;exitDx=0;exitDy=0;entryX=0;entryY=0.5;entryDx=0;entryDy=0;edgeStyle=orthogonalEdgeStyle;curved=1;" parent="1" source="96Z2TRk2g2hctk14bLeR-323" target="96Z2TRk2g2hctk14bLeR-321" edge="1">
          <mxGeometry width="50" height="50" relative="1" as="geometry">
            <mxPoint x="760" y="835" as="sourcePoint" />
            <mxPoint x="810" y="785" as="targetPoint" />
          </mxGeometry>
        </mxCell>
        <mxCell id="96Z2TRk2g2hctk14bLeR-330" value="" style="endArrow=classic;html=1;rounded=0;fontSize=10;entryX=0;entryY=0.5;entryDx=0;entryDy=0;exitX=1;exitY=0.5;exitDx=0;exitDy=0;" parent="1" source="96Z2TRk2g2hctk14bLeR-319" target="96Z2TRk2g2hctk14bLeR-321" edge="1">
          <mxGeometry width="50" height="50" relative="1" as="geometry">
            <mxPoint x="682.5" y="780" as="sourcePoint" />
            <mxPoint x="700" y="740" as="targetPoint" />
          </mxGeometry>
        </mxCell>
        <mxCell id="96Z2TRk2g2hctk14bLeR-331" value="640*640*3" style="text;html=1;strokeColor=none;fillColor=none;align=center;verticalAlign=middle;whiteSpace=wrap;rounded=0;strokeWidth=1;fontSize=12;" parent="1" vertex="1">
          <mxGeometry x="61" y="1112" width="60" height="30" as="geometry" />
        </mxCell>
        <mxCell id="96Z2TRk2g2hctk14bLeR-332" value="640*640*32" style="text;html=1;strokeColor=none;fillColor=none;align=center;verticalAlign=middle;whiteSpace=wrap;rounded=0;strokeWidth=1;fontSize=12;" parent="1" vertex="1">
          <mxGeometry x="112" y="915" width="59" height="30" as="geometry" />
        </mxCell>
        <mxCell id="96Z2TRk2g2hctk14bLeR-333" value="320*320*64" style="text;html=1;strokeColor=none;fillColor=none;align=center;verticalAlign=middle;whiteSpace=wrap;rounded=0;strokeWidth=1;fontSize=12;" parent="1" vertex="1">
          <mxGeometry x="111" y="875.03" width="60" height="30" as="geometry" />
        </mxCell>
        <mxCell id="96Z2TRk2g2hctk14bLeR-334" value="320*320*64" style="text;html=1;strokeColor=none;fillColor=none;align=center;verticalAlign=middle;whiteSpace=wrap;rounded=0;strokeWidth=1;fontSize=12;" parent="1" vertex="1">
          <mxGeometry x="111" y="835.03" width="60" height="30" as="geometry" />
        </mxCell>
        <mxCell id="96Z2TRk2g2hctk14bLeR-335" value="160*160*128" style="text;html=1;strokeColor=none;fillColor=none;align=center;verticalAlign=middle;whiteSpace=wrap;rounded=0;strokeWidth=1;fontSize=12;" parent="1" vertex="1">
          <mxGeometry x="111" y="795.03" width="60" height="30" as="geometry" />
        </mxCell>
        <mxCell id="96Z2TRk2g2hctk14bLeR-336" value="160*160*256" style="text;html=1;strokeColor=none;fillColor=none;align=center;verticalAlign=middle;whiteSpace=wrap;rounded=0;strokeWidth=1;fontSize=12;" parent="1" vertex="1">
          <mxGeometry x="111" y="755" width="60" height="30" as="geometry" />
        </mxCell>
        <mxCell id="96Z2TRk2g2hctk14bLeR-337" value="80*80*256" style="text;html=1;strokeColor=none;fillColor=none;align=center;verticalAlign=middle;whiteSpace=wrap;rounded=0;strokeWidth=1;fontSize=12;" parent="1" vertex="1">
          <mxGeometry x="111" y="605" width="60" height="30" as="geometry" />
        </mxCell>
        <mxCell id="96Z2TRk2g2hctk14bLeR-341" value="80*80*512" style="text;html=1;strokeColor=none;fillColor=none;align=center;verticalAlign=middle;whiteSpace=wrap;rounded=0;strokeWidth=1;fontSize=12;" parent="1" vertex="1">
          <mxGeometry x="96" y="530" width="60" height="30" as="geometry" />
        </mxCell>
        <mxCell id="96Z2TRk2g2hctk14bLeR-342" value="40*40*512" style="text;html=1;strokeColor=none;fillColor=none;align=center;verticalAlign=middle;whiteSpace=wrap;rounded=0;strokeWidth=1;fontSize=12;" parent="1" vertex="1">
          <mxGeometry x="96" y="420" width="60" height="30" as="geometry" />
        </mxCell>
        <mxCell id="96Z2TRk2g2hctk14bLeR-343" value="40*40*1024" style="text;html=1;strokeColor=none;fillColor=none;align=center;verticalAlign=middle;whiteSpace=wrap;rounded=0;strokeWidth=1;fontSize=12;" parent="1" vertex="1">
          <mxGeometry x="101" y="320" width="60" height="30" as="geometry" />
        </mxCell>
        <mxCell id="96Z2TRk2g2hctk14bLeR-344" value="20*20*1024" style="text;html=1;strokeColor=none;fillColor=none;align=center;verticalAlign=middle;whiteSpace=wrap;rounded=0;strokeWidth=1;fontSize=12;" parent="1" vertex="1">
          <mxGeometry x="101" y="255" width="60" height="30" as="geometry" />
        </mxCell>
        <mxCell id="96Z2TRk2g2hctk14bLeR-345" value="20*20*1024" style="text;html=1;strokeColor=none;fillColor=none;align=center;verticalAlign=middle;whiteSpace=wrap;rounded=0;strokeWidth=1;fontSize=12;" parent="1" vertex="1">
          <mxGeometry x="101" y="190" width="60" height="30" as="geometry" />
        </mxCell>
        <mxCell id="96Z2TRk2g2hctk14bLeR-346" value="40*40*256" style="text;html=1;strokeColor=none;fillColor=none;align=center;verticalAlign=middle;whiteSpace=wrap;rounded=0;strokeWidth=1;fontSize=12;" parent="1" vertex="1">
          <mxGeometry x="318" y="310" width="60" height="30" as="geometry" />
        </mxCell>
        <mxCell id="96Z2TRk2g2hctk14bLeR-348" value="20*20*256" style="text;html=1;strokeColor=none;fillColor=none;align=center;verticalAlign=middle;whiteSpace=wrap;rounded=0;strokeWidth=1;fontSize=12;" parent="1" vertex="1">
          <mxGeometry x="321" y="280" width="60" height="30" as="geometry" />
        </mxCell>
        <mxCell id="96Z2TRk2g2hctk14bLeR-349" value="20*20*512" style="text;html=1;strokeColor=none;fillColor=none;align=center;verticalAlign=middle;whiteSpace=wrap;rounded=0;strokeWidth=1;fontSize=12;" parent="1" vertex="1">
          <mxGeometry x="321" y="210" width="60" height="30" as="geometry" />
        </mxCell>
        <mxCell id="96Z2TRk2g2hctk14bLeR-351" value="40*40*512" style="text;html=1;strokeColor=none;fillColor=none;align=center;verticalAlign=middle;whiteSpace=wrap;rounded=0;strokeWidth=1;fontSize=12;" parent="1" vertex="1">
          <mxGeometry x="321" y="360" width="56" height="30" as="geometry" />
        </mxCell>
        <mxCell id="96Z2TRk2g2hctk14bLeR-352" value="40*40*1024" style="text;html=1;strokeColor=none;fillColor=none;align=center;verticalAlign=middle;whiteSpace=wrap;rounded=0;strokeWidth=1;fontSize=12;" parent="1" vertex="1">
          <mxGeometry x="323" y="400" width="56" height="30" as="geometry" />
        </mxCell>
        <mxCell id="96Z2TRk2g2hctk14bLeR-353" value="40*40*256" style="text;html=1;strokeColor=none;fillColor=none;align=center;verticalAlign=middle;whiteSpace=wrap;rounded=0;strokeWidth=1;fontSize=12;" parent="1" vertex="1">
          <mxGeometry x="318" y="435" width="56" height="30" as="geometry" />
        </mxCell>
        <mxCell id="96Z2TRk2g2hctk14bLeR-355" value="40*40*128" style="text;html=1;strokeColor=none;fillColor=none;align=center;verticalAlign=middle;whiteSpace=wrap;rounded=0;strokeWidth=1;fontSize=12;" parent="1" vertex="1">
          <mxGeometry x="320" y="500" width="56" height="30" as="geometry" />
        </mxCell>
        <mxCell id="96Z2TRk2g2hctk14bLeR-356" value="80*80*128" style="text;html=1;strokeColor=none;fillColor=none;align=center;verticalAlign=middle;whiteSpace=wrap;rounded=0;strokeWidth=1;fontSize=12;" parent="1" vertex="1">
          <mxGeometry x="327" y="540" width="56" height="30" as="geometry" />
        </mxCell>
        <mxCell id="96Z2TRk2g2hctk14bLeR-357" value="80*80*128" style="text;html=1;strokeColor=none;fillColor=none;align=center;verticalAlign=middle;whiteSpace=wrap;rounded=0;strokeWidth=1;fontSize=12;" parent="1" vertex="1">
          <mxGeometry x="234.5" y="530" width="56" height="30" as="geometry" />
        </mxCell>
        <mxCell id="96Z2TRk2g2hctk14bLeR-358" value="80*80*256" style="text;html=1;strokeColor=none;fillColor=none;align=center;verticalAlign=middle;whiteSpace=wrap;rounded=0;strokeWidth=1;fontSize=12;" parent="1" vertex="1">
          <mxGeometry x="318" y="585" width="56" height="30" as="geometry" />
        </mxCell>
        <mxCell id="96Z2TRk2g2hctk14bLeR-360" value="80*80*512" style="text;html=1;strokeColor=none;fillColor=none;align=center;verticalAlign=middle;whiteSpace=wrap;rounded=0;strokeWidth=1;fontSize=12;" parent="1" vertex="1">
          <mxGeometry x="319" y="630" width="56" height="30" as="geometry" />
        </mxCell>
        <mxCell id="96Z2TRk2g2hctk14bLeR-361" value="40*40*256" style="text;html=1;strokeColor=none;fillColor=none;align=center;verticalAlign=middle;whiteSpace=wrap;rounded=0;strokeWidth=1;fontSize=12;" parent="1" vertex="1">
          <mxGeometry x="495" y="585" width="56" height="30" as="geometry" />
        </mxCell>
        <mxCell id="96Z2TRk2g2hctk14bLeR-362" value="40*40*512" style="text;html=1;strokeColor=none;fillColor=none;align=center;verticalAlign=middle;whiteSpace=wrap;rounded=0;strokeWidth=1;fontSize=12;" parent="1" vertex="1">
          <mxGeometry x="495" y="490" width="56" height="30" as="geometry" />
        </mxCell>
        <mxCell id="96Z2TRk2g2hctk14bLeR-363" value="40*40*1024" style="text;html=1;strokeColor=none;fillColor=none;align=center;verticalAlign=middle;whiteSpace=wrap;rounded=0;strokeWidth=1;fontSize=12;" parent="1" vertex="1">
          <mxGeometry x="498" y="385" width="56" height="30" as="geometry" />
        </mxCell>
        <mxCell id="96Z2TRk2g2hctk14bLeR-364" value="40*40*256" style="text;html=1;strokeColor=none;fillColor=none;align=center;verticalAlign=middle;whiteSpace=wrap;rounded=0;strokeWidth=1;fontSize=12;" parent="1" vertex="1">
          <mxGeometry x="551" y="310" width="56" height="30" as="geometry" />
        </mxCell>
        <mxCell id="96Z2TRk2g2hctk14bLeR-365" value="20*20*512" style="text;html=1;strokeColor=none;fillColor=none;align=center;verticalAlign=middle;whiteSpace=wrap;rounded=0;strokeWidth=1;fontSize=12;" parent="1" vertex="1">
          <mxGeometry x="495" y="270" width="56" height="30" as="geometry" />
        </mxCell>
        <mxCell id="96Z2TRk2g2hctk14bLeR-366" value="20*20*1024" style="text;html=1;strokeColor=none;fillColor=none;align=center;verticalAlign=middle;whiteSpace=wrap;rounded=0;strokeWidth=1;fontSize=12;" parent="1" vertex="1">
          <mxGeometry x="501" y="220" width="56" height="30" as="geometry" />
        </mxCell>
        <mxCell id="96Z2TRk2g2hctk14bLeR-367" value="20*20*2048" style="text;html=1;strokeColor=none;fillColor=none;align=center;verticalAlign=middle;whiteSpace=wrap;rounded=0;strokeWidth=1;fontSize=12;" parent="1" vertex="1">
          <mxGeometry x="495" y="165" width="56" height="30" as="geometry" />
        </mxCell>
        <mxCell id="96Z2TRk2g2hctk14bLeR-368" value="20*20*512" style="text;html=1;strokeColor=none;fillColor=none;align=center;verticalAlign=middle;whiteSpace=wrap;rounded=0;strokeWidth=1;fontSize=12;" parent="1" vertex="1">
          <mxGeometry x="551" y="120" width="56" height="30" as="geometry" />
        </mxCell>
        <mxCell id="96Z2TRk2g2hctk14bLeR-369" value="80*80*128" style="text;html=1;strokeColor=none;fillColor=none;align=center;verticalAlign=middle;whiteSpace=wrap;rounded=0;strokeWidth=1;fontSize=12;" parent="1" vertex="1">
          <mxGeometry x="547" y="645" width="56" height="30" as="geometry" />
        </mxCell>
        <mxCell id="96Z2TRk2g2hctk14bLeR-370" value="20*20*85" style="text;html=1;strokeColor=none;fillColor=none;align=center;verticalAlign=middle;whiteSpace=wrap;rounded=0;strokeWidth=1;fontSize=12;" parent="1" vertex="1">
          <mxGeometry x="744" y="170" width="56" height="30" as="geometry" />
        </mxCell>
        <mxCell id="96Z2TRk2g2hctk14bLeR-371" value="40*40*85" style="text;html=1;strokeColor=none;fillColor=none;align=center;verticalAlign=middle;whiteSpace=wrap;rounded=0;strokeWidth=1;fontSize=12;" parent="1" vertex="1">
          <mxGeometry x="744" y="360" width="56" height="30" as="geometry" />
        </mxCell>
        <mxCell id="96Z2TRk2g2hctk14bLeR-372" value="80*80*85" style="text;html=1;strokeColor=none;fillColor=none;align=center;verticalAlign=middle;whiteSpace=wrap;rounded=0;strokeWidth=1;fontSize=12;" parent="1" vertex="1">
          <mxGeometry x="743" y="625" width="56" height="30" as="geometry" />
        </mxCell>
        <mxCell id="fXJZHlOHp_XLVNjCbuLn-1" value="40*40*256" style="text;html=1;strokeColor=none;fillColor=none;align=center;verticalAlign=middle;whiteSpace=wrap;rounded=0;strokeWidth=1;fontSize=12;" parent="1" vertex="1">
          <mxGeometry x="243.5" y="310" width="60" height="30" as="geometry" />
        </mxCell>
        <mxCell id="fXJZHlOHp_XLVNjCbuLn-3" style="edgeStyle=orthogonalEdgeStyle;rounded=0;orthogonalLoop=1;jettySize=auto;html=1;entryX=0;entryY=0.5;entryDx=0;entryDy=0;exitX=1;exitY=0.5;exitDx=0;exitDy=0;" parent="1" source="96Z2TRk2g2hctk14bLeR-218" edge="1">
          <mxGeometry relative="1" as="geometry">
            <mxPoint x="820" y="972.3599999999998" as="targetPoint" />
            <mxPoint x="810" y="980" as="sourcePoint" />
          </mxGeometry>
        </mxCell>
        <mxCell id="a6rZ2WNsQKCH5PQ9cZ_o-3" style="edgeStyle=orthogonalEdgeStyle;rounded=0;orthogonalLoop=1;jettySize=auto;html=1;exitX=1;exitY=0.5;exitDx=0;exitDy=0;entryX=0;entryY=0.5;entryDx=0;entryDy=0;fontFamily=Tahoma;fontSize=6;" parent="1" source="a6rZ2WNsQKCH5PQ9cZ_o-1" target="96Z2TRk2g2hctk14bLeR-48" edge="1">
          <mxGeometry relative="1" as="geometry" />
        </mxCell>
        <mxCell id="a6rZ2WNsQKCH5PQ9cZ_o-1" value="CBAM" style="rounded=1;whiteSpace=wrap;html=1;fillColor=#f5f5f5;fontColor=#333333;strokeColor=#666666;" parent="1" vertex="1">
          <mxGeometry x="213.5" y="555" width="60" height="20" as="geometry" />
        </mxCell>
        <mxCell id="a6rZ2WNsQKCH5PQ9cZ_o-8" style="edgeStyle=orthogonalEdgeStyle;rounded=0;orthogonalLoop=1;jettySize=auto;html=1;exitX=1;exitY=0.5;exitDx=0;exitDy=0;entryX=0;entryY=0.5;entryDx=0;entryDy=0;fontFamily=Tahoma;fontSize=6;" parent="1" source="a6rZ2WNsQKCH5PQ9cZ_o-4" target="96Z2TRk2g2hctk14bLeR-37" edge="1">
          <mxGeometry relative="1" as="geometry" />
        </mxCell>
        <mxCell id="a6rZ2WNsQKCH5PQ9cZ_o-4" value="CBAM" style="rounded=1;whiteSpace=wrap;html=1;fillColor=#f5f5f5;fontColor=#333333;strokeColor=#666666;" parent="1" vertex="1">
          <mxGeometry x="216" y="340" width="60" height="20" as="geometry" />
        </mxCell>
        <mxCell id="a6rZ2WNsQKCH5PQ9cZ_o-12" style="edgeStyle=orthogonalEdgeStyle;rounded=0;orthogonalLoop=1;jettySize=auto;html=1;exitX=0.5;exitY=1;exitDx=0;exitDy=0;entryX=0.5;entryY=0;entryDx=0;entryDy=0;fontFamily=Tahoma;fontSize=6;" parent="1" source="a6rZ2WNsQKCH5PQ9cZ_o-10" target="96Z2TRk2g2hctk14bLeR-60" edge="1">
          <mxGeometry relative="1" as="geometry" />
        </mxCell>
        <mxCell id="a6rZ2WNsQKCH5PQ9cZ_o-10" value="CBAM" style="rounded=1;whiteSpace=wrap;html=1;fillColor=#f5f5f5;fontColor=#333333;strokeColor=#666666;" parent="1" vertex="1">
          <mxGeometry x="250" y="485" width="120" height="20" as="geometry" />
        </mxCell>
        <mxCell id="a6rZ2WNsQKCH5PQ9cZ_o-15" style="edgeStyle=orthogonalEdgeStyle;rounded=0;orthogonalLoop=1;jettySize=auto;html=1;exitX=0.5;exitY=1;exitDx=0;exitDy=0;entryX=0.5;entryY=0;entryDx=0;entryDy=0;fontFamily=Tahoma;fontSize=6;" parent="1" source="a6rZ2WNsQKCH5PQ9cZ_o-13" target="96Z2TRk2g2hctk14bLeR-32" edge="1">
          <mxGeometry relative="1" as="geometry" />
        </mxCell>
        <mxCell id="a6rZ2WNsQKCH5PQ9cZ_o-13" value="CBAM" style="rounded=1;whiteSpace=wrap;html=1;fillColor=#f5f5f5;fontColor=#333333;strokeColor=#666666;" parent="1" vertex="1">
          <mxGeometry x="250" y="265" width="120" height="20" as="geometry" />
        </mxCell>
        <mxCell id="a6rZ2WNsQKCH5PQ9cZ_o-16" style="edgeStyle=orthogonalEdgeStyle;rounded=0;orthogonalLoop=1;jettySize=auto;html=1;exitX=0.5;exitY=1;exitDx=0;exitDy=0;fontFamily=Tahoma;fontSize=6;" parent="1" source="96Z2TRk2g2hctk14bLeR-348" target="96Z2TRk2g2hctk14bLeR-348" edge="1">
          <mxGeometry relative="1" as="geometry" />
        </mxCell>
        <mxCell id="KWhuUIyhuwhSW9V_fMmg-5" value="cat" style="ellipse;whiteSpace=wrap;html=1;rounded=1;fillColor=#fff2cc;strokeColor=#d6b656;" vertex="1" parent="1">
          <mxGeometry x="511" y="850.03" width="30" height="30" as="geometry" />
        </mxCell>
        <mxCell id="KWhuUIyhuwhSW9V_fMmg-6" value="cat" style="ellipse;whiteSpace=wrap;html=1;rounded=1;fillColor=#fff2cc;strokeColor=#d6b656;" vertex="1" parent="1">
          <mxGeometry x="506" y="957.5" width="30" height="30" as="geometry" />
        </mxCell>
        <mxCell id="KWhuUIyhuwhSW9V_fMmg-7" value="cat" style="ellipse;whiteSpace=wrap;html=1;rounded=1;fillColor=#fff2cc;strokeColor=#d6b656;" vertex="1" parent="1">
          <mxGeometry x="776" y="957.5" width="30" height="30" as="geometry" />
        </mxCell>
        <mxCell id="KWhuUIyhuwhSW9V_fMmg-8" value="cat" style="ellipse;whiteSpace=wrap;html=1;rounded=1;fillColor=#fff2cc;strokeColor=#d6b656;" vertex="1" parent="1">
          <mxGeometry x="663" y="1048.75" width="30" height="30" as="geometry" />
        </mxCell>
        <mxCell id="KWhuUIyhuwhSW9V_fMmg-9" value="cat" style="ellipse;whiteSpace=wrap;html=1;rounded=1;fillColor=#fff2cc;strokeColor=#d6b656;" vertex="1" parent="1">
          <mxGeometry x="870" y="1048.75" width="30" height="30" as="geometry" />
        </mxCell>
        <mxCell id="KWhuUIyhuwhSW9V_fMmg-10" value="add" style="ellipse;whiteSpace=wrap;html=1;rounded=1;fillColor=#00FFFF;strokeColor=#0e8088;" vertex="1" parent="1">
          <mxGeometry x="786" y="755" width="30" height="30" as="geometry" />
        </mxCell>
        <mxCell id="KWhuUIyhuwhSW9V_fMmg-11" value="MPConv" style="rounded=1;whiteSpace=wrap;html=1;fillColor=#fad9d5;strokeColor=#ae4132;" vertex="1" parent="1">
          <mxGeometry x="560" y="962.5" width="50" height="20" as="geometry" />
        </mxCell>
        <mxCell id="KWhuUIyhuwhSW9V_fMmg-12" value="SPPCSPC-XS" style="rounded=1;whiteSpace=wrap;html=1;fillColor=#ffff88;strokeColor=#36393d;" vertex="1" parent="1">
          <mxGeometry x="251" y="200" width="120" height="20" as="geometry" />
        </mxCell>
      </root>
    </mxGraphModel>
  </diagram>
</mxfile>
